<mxfile host="app.diagrams.net" modified="2024-02-06T10:03:44.005Z" agent="Mozilla/5.0 (Windows NT 10.0; Win64; x64) AppleWebKit/537.36 (KHTML, like Gecko) Chrome/121.0.0.0 Safari/537.36 Edg/121.0.0.0" etag="_7HLkCvjpSjPjSY95kJX" version="23.1.1" type="device" pages="4">
  <diagram name="Page-1" id="C9uyg0HN0o3slQ8mchxU">
    <mxGraphModel dx="2074" dy="1124" grid="1" gridSize="10" guides="1" tooltips="1" connect="1" arrows="1" fold="1" page="1" pageScale="1" pageWidth="827" pageHeight="1169" math="0" shadow="0">
      <root>
        <mxCell id="0" />
        <mxCell id="1" parent="0" />
        <mxCell id="Nk5VmOWkJlFsqhGpahAX-9" style="edgeStyle=orthogonalEdgeStyle;rounded=0;orthogonalLoop=1;jettySize=auto;html=1;entryX=0.5;entryY=0;entryDx=0;entryDy=0;endArrow=none;endFill=0;" edge="1" parent="1" source="Nk5VmOWkJlFsqhGpahAX-5" target="Nk5VmOWkJlFsqhGpahAX-7">
          <mxGeometry relative="1" as="geometry" />
        </mxCell>
        <mxCell id="Nk5VmOWkJlFsqhGpahAX-5" value="FWorkersCount := 0;" style="rounded=0;whiteSpace=wrap;html=1;" vertex="1" parent="1">
          <mxGeometry x="40" y="100" width="150" height="60" as="geometry" />
        </mxCell>
        <mxCell id="Nk5VmOWkJlFsqhGpahAX-8" style="edgeStyle=orthogonalEdgeStyle;rounded=0;orthogonalLoop=1;jettySize=auto;html=1;entryX=0.5;entryY=0;entryDx=0;entryDy=0;endArrow=none;endFill=0;" edge="1" parent="1" source="Nk5VmOWkJlFsqhGpahAX-6" target="Nk5VmOWkJlFsqhGpahAX-5">
          <mxGeometry relative="1" as="geometry" />
        </mxCell>
        <mxCell id="Nk5VmOWkJlFsqhGpahAX-6" value="Constructor TWorkers.Create;" style="rounded=1;whiteSpace=wrap;html=1;arcSize=50;" vertex="1" parent="1">
          <mxGeometry x="40" y="20" width="150" height="60" as="geometry" />
        </mxCell>
        <mxCell id="Nk5VmOWkJlFsqhGpahAX-7" value="Конец" style="rounded=1;whiteSpace=wrap;html=1;arcSize=50;" vertex="1" parent="1">
          <mxGeometry x="40" y="180" width="150" height="60" as="geometry" />
        </mxCell>
        <mxCell id="Nk5VmOWkJlFsqhGpahAX-10" style="edgeStyle=orthogonalEdgeStyle;rounded=0;orthogonalLoop=1;jettySize=auto;html=1;entryX=0.5;entryY=0;entryDx=0;entryDy=0;endArrow=none;endFill=0;" edge="1" parent="1" source="Nk5VmOWkJlFsqhGpahAX-11" target="Nk5VmOWkJlFsqhGpahAX-14">
          <mxGeometry relative="1" as="geometry" />
        </mxCell>
        <mxCell id="Nk5VmOWkJlFsqhGpahAX-11" value="&amp;nbsp; &amp;nbsp; GetWorker := FWorkersArray[Index];" style="rounded=0;whiteSpace=wrap;html=1;" vertex="1" parent="1">
          <mxGeometry x="40" y="330" width="150" height="60" as="geometry" />
        </mxCell>
        <mxCell id="Nk5VmOWkJlFsqhGpahAX-12" style="edgeStyle=orthogonalEdgeStyle;rounded=0;orthogonalLoop=1;jettySize=auto;html=1;entryX=0.5;entryY=0;entryDx=0;entryDy=0;endArrow=none;endFill=0;" edge="1" parent="1" source="Nk5VmOWkJlFsqhGpahAX-13" target="Nk5VmOWkJlFsqhGpahAX-11">
          <mxGeometry relative="1" as="geometry" />
        </mxCell>
        <mxCell id="Nk5VmOWkJlFsqhGpahAX-13" value="Function TWorkers.GetWorker(Index: Integer): TWorker;" style="rounded=1;whiteSpace=wrap;html=1;arcSize=50;" vertex="1" parent="1">
          <mxGeometry x="40" y="250" width="150" height="60" as="geometry" />
        </mxCell>
        <mxCell id="Nk5VmOWkJlFsqhGpahAX-14" value="Конец" style="rounded=1;whiteSpace=wrap;html=1;arcSize=50;" vertex="1" parent="1">
          <mxGeometry x="40" y="410" width="150" height="60" as="geometry" />
        </mxCell>
        <mxCell id="Nk5VmOWkJlFsqhGpahAX-28" style="edgeStyle=orthogonalEdgeStyle;rounded=0;orthogonalLoop=1;jettySize=auto;html=1;entryX=0.5;entryY=0;entryDx=0;entryDy=0;endArrow=none;endFill=0;" edge="1" parent="1" source="Nk5VmOWkJlFsqhGpahAX-16" target="Nk5VmOWkJlFsqhGpahAX-21">
          <mxGeometry relative="1" as="geometry" />
        </mxCell>
        <mxCell id="Nk5VmOWkJlFsqhGpahAX-16" value="FWorkersArray[Index] := Worker;" style="rounded=0;whiteSpace=wrap;html=1;" vertex="1" parent="1">
          <mxGeometry x="200" y="100" width="150" height="60" as="geometry" />
        </mxCell>
        <mxCell id="Nk5VmOWkJlFsqhGpahAX-17" style="edgeStyle=orthogonalEdgeStyle;rounded=0;orthogonalLoop=1;jettySize=auto;html=1;entryX=0.5;entryY=0;entryDx=0;entryDy=0;endArrow=none;endFill=0;" edge="1" parent="1" source="Nk5VmOWkJlFsqhGpahAX-18" target="Nk5VmOWkJlFsqhGpahAX-16">
          <mxGeometry relative="1" as="geometry" />
        </mxCell>
        <mxCell id="Nk5VmOWkJlFsqhGpahAX-18" value="Procedure TWorkers.SetWorker(Index: Integer; Const Worker: TWorker);" style="rounded=1;whiteSpace=wrap;html=1;arcSize=50;" vertex="1" parent="1">
          <mxGeometry x="200" y="20" width="150" height="60" as="geometry" />
        </mxCell>
        <mxCell id="Nk5VmOWkJlFsqhGpahAX-19" value="Конец" style="rounded=1;whiteSpace=wrap;html=1;arcSize=50;" vertex="1" parent="1">
          <mxGeometry x="200" y="410" width="150" height="60" as="geometry" />
        </mxCell>
        <mxCell id="Nk5VmOWkJlFsqhGpahAX-20" style="edgeStyle=orthogonalEdgeStyle;rounded=0;orthogonalLoop=1;jettySize=auto;html=1;entryX=0.5;entryY=0;entryDx=0;entryDy=0;endArrow=none;endFill=0;" edge="1" source="Nk5VmOWkJlFsqhGpahAX-21" parent="1">
          <mxGeometry relative="1" as="geometry">
            <mxPoint x="475" y="260" as="targetPoint" />
          </mxGeometry>
        </mxCell>
        <mxCell id="Nk5VmOWkJlFsqhGpahAX-29" style="edgeStyle=orthogonalEdgeStyle;rounded=0;orthogonalLoop=1;jettySize=auto;html=1;entryX=0.5;entryY=0;entryDx=0;entryDy=0;endArrow=none;endFill=0;" edge="1" parent="1" source="Nk5VmOWkJlFsqhGpahAX-21" target="Nk5VmOWkJlFsqhGpahAX-19">
          <mxGeometry relative="1" as="geometry" />
        </mxCell>
        <mxCell id="Nk5VmOWkJlFsqhGpahAX-21" value="Except" style="rhombus;whiteSpace=wrap;html=1;" vertex="1" parent="1">
          <mxGeometry x="200" y="180" width="150" height="60" as="geometry" />
        </mxCell>
        <mxCell id="Nk5VmOWkJlFsqhGpahAX-23" value="" style="endArrow=classic;html=1;rounded=0;exitX=0.5;exitY=1;exitDx=0;exitDy=0;" edge="1" parent="1">
          <mxGeometry width="50" height="50" relative="1" as="geometry">
            <mxPoint x="475" y="370" as="sourcePoint" />
            <mxPoint x="275" y="391" as="targetPoint" />
            <Array as="points">
              <mxPoint x="475" y="390" />
            </Array>
          </mxGeometry>
        </mxCell>
        <mxCell id="Nk5VmOWkJlFsqhGpahAX-24" value="Да" style="text;html=1;align=center;verticalAlign=middle;resizable=0;points=[];autosize=1;strokeColor=none;fillColor=none;" vertex="1" parent="1">
          <mxGeometry x="345" y="180" width="40" height="30" as="geometry" />
        </mxCell>
        <mxCell id="Nk5VmOWkJlFsqhGpahAX-30" style="edgeStyle=orthogonalEdgeStyle;rounded=0;orthogonalLoop=1;jettySize=auto;html=1;entryX=0.5;entryY=0;entryDx=0;entryDy=0;endArrow=none;endFill=0;" edge="1" parent="1" source="Nk5VmOWkJlFsqhGpahAX-26" target="Nk5VmOWkJlFsqhGpahAX-27">
          <mxGeometry relative="1" as="geometry" />
        </mxCell>
        <mxCell id="Nk5VmOWkJlFsqhGpahAX-26" value="&lt;div&gt;Inc(FWorkersCount);&lt;span style=&quot;background-color: initial;&quot;&gt;&amp;nbsp; &amp;nbsp; &amp;nbsp; &amp;nbsp; SetLength(FWorkersArray, FWorkersCount);&lt;/span&gt;&lt;/div&gt;" style="rounded=0;whiteSpace=wrap;html=1;" vertex="1" parent="1">
          <mxGeometry x="400" y="230" width="150" height="60" as="geometry" />
        </mxCell>
        <mxCell id="Nk5VmOWkJlFsqhGpahAX-27" value="FWorkersArray[Index] := Worker;" style="rounded=0;whiteSpace=wrap;html=1;" vertex="1" parent="1">
          <mxGeometry x="400" y="310" width="150" height="60" as="geometry" />
        </mxCell>
        <mxCell id="Nk5VmOWkJlFsqhGpahAX-37" style="edgeStyle=orthogonalEdgeStyle;rounded=0;orthogonalLoop=1;jettySize=auto;html=1;entryX=0.5;entryY=0;entryDx=0;entryDy=0;endArrow=none;endFill=0;" edge="1" parent="1" source="Nk5VmOWkJlFsqhGpahAX-32" target="Nk5VmOWkJlFsqhGpahAX-36">
          <mxGeometry relative="1" as="geometry" />
        </mxCell>
        <mxCell id="Nk5VmOWkJlFsqhGpahAX-32" value="FWorkersCount := WorkersCount;&lt;br&gt;FWorkersArray := Nil;" style="rounded=0;whiteSpace=wrap;html=1;" vertex="1" parent="1">
          <mxGeometry x="560" y="100" width="150" height="60" as="geometry" />
        </mxCell>
        <mxCell id="Nk5VmOWkJlFsqhGpahAX-33" style="edgeStyle=orthogonalEdgeStyle;rounded=0;orthogonalLoop=1;jettySize=auto;html=1;entryX=0.5;entryY=0;entryDx=0;entryDy=0;endArrow=none;endFill=0;" edge="1" parent="1" source="Nk5VmOWkJlFsqhGpahAX-34" target="Nk5VmOWkJlFsqhGpahAX-32">
          <mxGeometry relative="1" as="geometry" />
        </mxCell>
        <mxCell id="Nk5VmOWkJlFsqhGpahAX-34" value="Procedure TWorkers.SetWorkersCount&lt;br&gt;(Const WorkersCount: Integer);" style="rounded=1;whiteSpace=wrap;html=1;arcSize=50;" vertex="1" parent="1">
          <mxGeometry x="560" y="20" width="150" height="60" as="geometry" />
        </mxCell>
        <mxCell id="Nk5VmOWkJlFsqhGpahAX-35" value="Конец" style="rounded=1;whiteSpace=wrap;html=1;arcSize=50;" vertex="1" parent="1">
          <mxGeometry x="560" y="260" width="150" height="60" as="geometry" />
        </mxCell>
        <mxCell id="Nk5VmOWkJlFsqhGpahAX-38" style="edgeStyle=orthogonalEdgeStyle;rounded=0;orthogonalLoop=1;jettySize=auto;html=1;entryX=0.5;entryY=0;entryDx=0;entryDy=0;endArrow=none;endFill=0;" edge="1" parent="1" source="Nk5VmOWkJlFsqhGpahAX-36" target="Nk5VmOWkJlFsqhGpahAX-35">
          <mxGeometry relative="1" as="geometry" />
        </mxCell>
        <mxCell id="Nk5VmOWkJlFsqhGpahAX-36" value="Setlength(FWorkersArray, FWorkersCount);" style="rounded=0;whiteSpace=wrap;html=1;" vertex="1" parent="1">
          <mxGeometry x="560" y="180" width="150" height="60" as="geometry" />
        </mxCell>
        <mxCell id="Nk5VmOWkJlFsqhGpahAX-46" style="edgeStyle=orthogonalEdgeStyle;rounded=0;orthogonalLoop=1;jettySize=auto;html=1;entryX=0.5;entryY=0;entryDx=0;entryDy=0;endArrow=none;endFill=0;" edge="1" parent="1" source="Nk5VmOWkJlFsqhGpahAX-39" target="Nk5VmOWkJlFsqhGpahAX-40">
          <mxGeometry relative="1" as="geometry" />
        </mxCell>
        <mxCell id="Nk5VmOWkJlFsqhGpahAX-39" value="Function TFileReader.ReadTable: TWorkers;" style="rounded=1;whiteSpace=wrap;html=1;arcSize=50;" vertex="1" parent="1">
          <mxGeometry x="400" y="410" width="150" height="60" as="geometry" />
        </mxCell>
        <mxCell id="8XuL1x-wbhf8CoLdvdzy-11" style="edgeStyle=orthogonalEdgeStyle;rounded=0;orthogonalLoop=1;jettySize=auto;html=1;entryX=0.5;entryY=0;entryDx=0;entryDy=0;endArrow=none;endFill=0;" edge="1" parent="1" source="Nk5VmOWkJlFsqhGpahAX-40" target="8XuL1x-wbhf8CoLdvdzy-2">
          <mxGeometry relative="1" as="geometry" />
        </mxCell>
        <mxCell id="Nk5VmOWkJlFsqhGpahAX-40" value="&lt;div&gt;&amp;nbsp;I := 0;&lt;/div&gt;&lt;div&gt;Workers := TWorkers.Create();&lt;/div&gt;&lt;div&gt;ReSet(FInFile);&lt;br&gt;&lt;/div&gt;" style="rounded=0;whiteSpace=wrap;html=1;" vertex="1" parent="1">
          <mxGeometry x="400" y="490" width="150" height="60" as="geometry" />
        </mxCell>
        <mxCell id="Nk5VmOWkJlFsqhGpahAX-41" style="edgeStyle=orthogonalEdgeStyle;rounded=0;orthogonalLoop=1;jettySize=auto;html=1;entryX=0.5;entryY=0;entryDx=0;entryDy=0;endArrow=none;endFill=0;" edge="1" parent="1" source="Nk5VmOWkJlFsqhGpahAX-42" target="Nk5VmOWkJlFsqhGpahAX-45">
          <mxGeometry relative="1" as="geometry" />
        </mxCell>
        <mxCell id="Nk5VmOWkJlFsqhGpahAX-42" value="&amp;nbsp; &amp;nbsp; FWorkersArray := Nil;" style="rounded=0;whiteSpace=wrap;html=1;" vertex="1" parent="1">
          <mxGeometry x="560" y="410" width="150" height="60" as="geometry" />
        </mxCell>
        <mxCell id="Nk5VmOWkJlFsqhGpahAX-43" style="edgeStyle=orthogonalEdgeStyle;rounded=0;orthogonalLoop=1;jettySize=auto;html=1;entryX=0.5;entryY=0;entryDx=0;entryDy=0;endArrow=none;endFill=0;" edge="1" parent="1" source="Nk5VmOWkJlFsqhGpahAX-44" target="Nk5VmOWkJlFsqhGpahAX-42">
          <mxGeometry relative="1" as="geometry" />
        </mxCell>
        <mxCell id="Nk5VmOWkJlFsqhGpahAX-44" value="Destructor TWorkers.Destroy;" style="rounded=1;whiteSpace=wrap;html=1;arcSize=50;" vertex="1" parent="1">
          <mxGeometry x="560" y="330" width="150" height="60" as="geometry" />
        </mxCell>
        <mxCell id="Nk5VmOWkJlFsqhGpahAX-45" value="Конец" style="rounded=1;whiteSpace=wrap;html=1;arcSize=50;" vertex="1" parent="1">
          <mxGeometry x="560" y="490" width="150" height="60" as="geometry" />
        </mxCell>
        <mxCell id="Nk5VmOWkJlFsqhGpahAX-47" style="edgeStyle=orthogonalEdgeStyle;rounded=0;orthogonalLoop=1;jettySize=auto;html=1;entryX=0.5;entryY=0;entryDx=0;entryDy=0;endArrow=none;endFill=0;" edge="1" parent="1" source="Nk5VmOWkJlFsqhGpahAX-49">
          <mxGeometry relative="1" as="geometry">
            <mxPoint x="675" y="1050" as="targetPoint" />
          </mxGeometry>
        </mxCell>
        <mxCell id="8XuL1x-wbhf8CoLdvdzy-14" style="edgeStyle=orthogonalEdgeStyle;rounded=0;orthogonalLoop=1;jettySize=auto;html=1;entryX=0.5;entryY=0;entryDx=0;entryDy=0;endArrow=none;endFill=0;" edge="1" parent="1" source="Nk5VmOWkJlFsqhGpahAX-49" target="8XuL1x-wbhf8CoLdvdzy-12">
          <mxGeometry relative="1" as="geometry" />
        </mxCell>
        <mxCell id="Nk5VmOWkJlFsqhGpahAX-49" value="Except" style="rhombus;whiteSpace=wrap;html=1;" vertex="1" parent="1">
          <mxGeometry x="400" y="970" width="150" height="60" as="geometry" />
        </mxCell>
        <mxCell id="Nk5VmOWkJlFsqhGpahAX-50" value="" style="endArrow=classic;html=1;rounded=0;exitX=0.5;exitY=1;exitDx=0;exitDy=0;" edge="1" parent="1" source="Nk5VmOWkJlFsqhGpahAX-54">
          <mxGeometry width="50" height="50" relative="1" as="geometry">
            <mxPoint x="675" y="1160" as="sourcePoint" />
            <mxPoint x="475" y="1120" as="targetPoint" />
            <Array as="points">
              <mxPoint x="670" y="1120" />
            </Array>
          </mxGeometry>
        </mxCell>
        <mxCell id="Nk5VmOWkJlFsqhGpahAX-51" value="Да" style="text;html=1;align=center;verticalAlign=middle;resizable=0;points=[];autosize=1;strokeColor=none;fillColor=none;" vertex="1" parent="1">
          <mxGeometry x="545" y="970" width="40" height="30" as="geometry" />
        </mxCell>
        <mxCell id="Nk5VmOWkJlFsqhGpahAX-54" value="FFileStatus := FsUnexpected;" style="rounded=0;whiteSpace=wrap;html=1;" vertex="1" parent="1">
          <mxGeometry x="595" y="1030" width="150" height="60" as="geometry" />
        </mxCell>
        <mxCell id="Nk5VmOWkJlFsqhGpahAX-69" value="Конец" style="rounded=1;whiteSpace=wrap;html=1;arcSize=50;" vertex="1" parent="1">
          <mxGeometry x="400" y="1220" width="150" height="60" as="geometry" />
        </mxCell>
        <mxCell id="Nk5VmOWkJlFsqhGpahAX-93" style="edgeStyle=orthogonalEdgeStyle;rounded=0;orthogonalLoop=1;jettySize=auto;html=1;entryX=0.5;entryY=0;entryDx=0;entryDy=0;endArrow=none;endFill=0;" edge="1" parent="1" source="Nk5VmOWkJlFsqhGpahAX-73" target="Nk5VmOWkJlFsqhGpahAX-92">
          <mxGeometry relative="1" as="geometry" />
        </mxCell>
        <mxCell id="Nk5VmOWkJlFsqhGpahAX-73" value="Procedure TFileWriter.SaveTable(Const Workers: TWorkers);" style="rounded=1;whiteSpace=wrap;html=1;arcSize=50;" vertex="1" parent="1">
          <mxGeometry x="40" y="490" width="150" height="60" as="geometry" />
        </mxCell>
        <mxCell id="Nk5VmOWkJlFsqhGpahAX-74" style="edgeStyle=orthogonalEdgeStyle;rounded=0;orthogonalLoop=1;jettySize=auto;html=1;entryX=0.5;entryY=0;entryDx=0;entryDy=0;endArrow=none;endFill=0;" edge="1" parent="1" source="Nk5VmOWkJlFsqhGpahAX-76">
          <mxGeometry relative="1" as="geometry">
            <mxPoint x="315" y="1130" as="targetPoint" />
          </mxGeometry>
        </mxCell>
        <mxCell id="Nk5VmOWkJlFsqhGpahAX-75" style="edgeStyle=orthogonalEdgeStyle;rounded=0;orthogonalLoop=1;jettySize=auto;html=1;entryX=0.5;entryY=0;entryDx=0;entryDy=0;endArrow=none;endFill=0;" edge="1" parent="1" source="Nk5VmOWkJlFsqhGpahAX-76" target="Nk5VmOWkJlFsqhGpahAX-98">
          <mxGeometry relative="1" as="geometry">
            <mxPoint x="115" y="1130" as="targetPoint" />
          </mxGeometry>
        </mxCell>
        <mxCell id="Nk5VmOWkJlFsqhGpahAX-76" value="Except" style="rhombus;whiteSpace=wrap;html=1;" vertex="1" parent="1">
          <mxGeometry x="40" y="1050" width="150" height="60" as="geometry" />
        </mxCell>
        <mxCell id="Nk5VmOWkJlFsqhGpahAX-77" value="" style="endArrow=classic;html=1;rounded=0;exitX=0.5;exitY=1;exitDx=0;exitDy=0;" edge="1" parent="1" source="Nk5VmOWkJlFsqhGpahAX-79">
          <mxGeometry width="50" height="50" relative="1" as="geometry">
            <mxPoint x="315" y="1531" as="sourcePoint" />
            <mxPoint x="115" y="1189" as="targetPoint" />
            <Array as="points">
              <mxPoint x="315" y="1190" />
            </Array>
          </mxGeometry>
        </mxCell>
        <mxCell id="Nk5VmOWkJlFsqhGpahAX-78" value="Да" style="text;html=1;align=center;verticalAlign=middle;resizable=0;points=[];autosize=1;strokeColor=none;fillColor=none;" vertex="1" parent="1">
          <mxGeometry x="185" y="1050" width="40" height="30" as="geometry" />
        </mxCell>
        <mxCell id="Nk5VmOWkJlFsqhGpahAX-79" value="FFileStatus := FsUnexpected;" style="rounded=0;whiteSpace=wrap;html=1;" vertex="1" parent="1">
          <mxGeometry x="240" y="1110" width="150" height="60" as="geometry" />
        </mxCell>
        <mxCell id="8XuL1x-wbhf8CoLdvdzy-26" style="edgeStyle=orthogonalEdgeStyle;rounded=0;orthogonalLoop=1;jettySize=auto;html=1;entryX=0.5;entryY=0;entryDx=0;entryDy=0;endArrow=none;endFill=0;" edge="1" parent="1" source="Nk5VmOWkJlFsqhGpahAX-92" target="8XuL1x-wbhf8CoLdvdzy-17">
          <mxGeometry relative="1" as="geometry" />
        </mxCell>
        <mxCell id="Nk5VmOWkJlFsqhGpahAX-92" value="&lt;div&gt;ReWrite(FOutFile);&lt;br&gt;&lt;/div&gt;" style="rounded=0;whiteSpace=wrap;html=1;" vertex="1" parent="1">
          <mxGeometry x="40" y="570" width="150" height="60" as="geometry" />
        </mxCell>
        <mxCell id="Nk5VmOWkJlFsqhGpahAX-98" value="Конец" style="rounded=1;whiteSpace=wrap;html=1;arcSize=50;" vertex="1" parent="1">
          <mxGeometry x="40" y="1210" width="150" height="60" as="geometry" />
        </mxCell>
        <mxCell id="8XuL1x-wbhf8CoLdvdzy-1" style="edgeStyle=orthogonalEdgeStyle;rounded=0;orthogonalLoop=1;jettySize=auto;html=1;entryX=0.5;entryY=0;entryDx=0;entryDy=0;endArrow=none;endFill=0;" edge="1" parent="1" source="8XuL1x-wbhf8CoLdvdzy-2" target="8XuL1x-wbhf8CoLdvdzy-7">
          <mxGeometry relative="1" as="geometry" />
        </mxCell>
        <mxCell id="8XuL1x-wbhf8CoLdvdzy-2" value="A1&lt;br&gt;Not Eof(FINFile)" style="shape=loopLimit;whiteSpace=wrap;html=1;" vertex="1" parent="1">
          <mxGeometry x="400" y="570" width="150" height="60" as="geometry" />
        </mxCell>
        <mxCell id="8XuL1x-wbhf8CoLdvdzy-3" value="" style="shape=loopLimit;whiteSpace=wrap;html=1;rotation=-180;" vertex="1" parent="1">
          <mxGeometry x="400" y="810" width="150" height="60" as="geometry" />
        </mxCell>
        <mxCell id="8XuL1x-wbhf8CoLdvdzy-4" style="edgeStyle=orthogonalEdgeStyle;rounded=0;orthogonalLoop=1;jettySize=auto;html=1;entryX=0.5;entryY=0;entryDx=0;entryDy=0;endArrow=none;endFill=0;" edge="1" parent="1" source="8XuL1x-wbhf8CoLdvdzy-5" target="8XuL1x-wbhf8CoLdvdzy-10">
          <mxGeometry relative="1" as="geometry" />
        </mxCell>
        <mxCell id="8XuL1x-wbhf8CoLdvdzy-5" value="A1" style="text;html=1;strokeColor=none;fillColor=none;align=center;verticalAlign=middle;whiteSpace=wrap;rounded=0;" vertex="1" parent="1">
          <mxGeometry x="400" y="810" width="150" height="60" as="geometry" />
        </mxCell>
        <mxCell id="8XuL1x-wbhf8CoLdvdzy-6" style="edgeStyle=orthogonalEdgeStyle;rounded=0;orthogonalLoop=1;jettySize=auto;html=1;entryX=0.5;entryY=0;entryDx=0;entryDy=0;endArrow=none;endFill=0;" edge="1" parent="1" source="8XuL1x-wbhf8CoLdvdzy-7" target="8XuL1x-wbhf8CoLdvdzy-9">
          <mxGeometry relative="1" as="geometry" />
        </mxCell>
        <mxCell id="8XuL1x-wbhf8CoLdvdzy-7" value="Read(FInFile, Worker);" style="shape=parallelogram;perimeter=parallelogramPerimeter;whiteSpace=wrap;html=1;fixedSize=1;" vertex="1" parent="1">
          <mxGeometry x="400" y="650" width="150" height="60" as="geometry" />
        </mxCell>
        <mxCell id="8XuL1x-wbhf8CoLdvdzy-8" style="edgeStyle=orthogonalEdgeStyle;rounded=0;orthogonalLoop=1;jettySize=auto;html=1;entryX=0.5;entryY=0;entryDx=0;entryDy=0;endArrow=none;endFill=0;" edge="1" parent="1" source="8XuL1x-wbhf8CoLdvdzy-9" target="8XuL1x-wbhf8CoLdvdzy-5">
          <mxGeometry relative="1" as="geometry" />
        </mxCell>
        <mxCell id="8XuL1x-wbhf8CoLdvdzy-9" value="Workers[I] := Worker;&lt;br&gt;Inc(I);" style="rounded=0;whiteSpace=wrap;html=1;" vertex="1" parent="1">
          <mxGeometry x="400" y="730" width="150" height="60" as="geometry" />
        </mxCell>
        <mxCell id="8XuL1x-wbhf8CoLdvdzy-13" style="edgeStyle=orthogonalEdgeStyle;rounded=0;orthogonalLoop=1;jettySize=auto;html=1;entryX=0.5;entryY=0;entryDx=0;entryDy=0;endArrow=none;endFill=0;" edge="1" parent="1" source="8XuL1x-wbhf8CoLdvdzy-10" target="Nk5VmOWkJlFsqhGpahAX-49">
          <mxGeometry relative="1" as="geometry" />
        </mxCell>
        <mxCell id="8XuL1x-wbhf8CoLdvdzy-10" value="CloseFile(FInFile);" style="rounded=0;whiteSpace=wrap;html=1;" vertex="1" parent="1">
          <mxGeometry x="400" y="890" width="150" height="60" as="geometry" />
        </mxCell>
        <mxCell id="8XuL1x-wbhf8CoLdvdzy-15" style="edgeStyle=orthogonalEdgeStyle;rounded=0;orthogonalLoop=1;jettySize=auto;html=1;entryX=0.5;entryY=0;entryDx=0;entryDy=0;endArrow=none;endFill=0;" edge="1" parent="1" source="8XuL1x-wbhf8CoLdvdzy-12" target="Nk5VmOWkJlFsqhGpahAX-69">
          <mxGeometry relative="1" as="geometry" />
        </mxCell>
        <mxCell id="8XuL1x-wbhf8CoLdvdzy-12" value="&lt;div&gt;ReadTable := Workers;&lt;br&gt;&lt;/div&gt;" style="rounded=0;whiteSpace=wrap;html=1;" vertex="1" parent="1">
          <mxGeometry x="400" y="1140" width="150" height="60" as="geometry" />
        </mxCell>
        <mxCell id="8XuL1x-wbhf8CoLdvdzy-16" style="edgeStyle=orthogonalEdgeStyle;rounded=0;orthogonalLoop=1;jettySize=auto;html=1;entryX=0.5;entryY=0;entryDx=0;entryDy=0;endArrow=none;endFill=0;" edge="1" parent="1" source="8XuL1x-wbhf8CoLdvdzy-17" target="8XuL1x-wbhf8CoLdvdzy-24">
          <mxGeometry relative="1" as="geometry" />
        </mxCell>
        <mxCell id="8XuL1x-wbhf8CoLdvdzy-17" value="A1&lt;br&gt;I := 1 To Workers.Count" style="shape=loopLimit;whiteSpace=wrap;html=1;" vertex="1" parent="1">
          <mxGeometry x="40" y="650" width="150" height="60" as="geometry" />
        </mxCell>
        <mxCell id="8XuL1x-wbhf8CoLdvdzy-18" value="" style="shape=loopLimit;whiteSpace=wrap;html=1;rotation=-180;" vertex="1" parent="1">
          <mxGeometry x="40" y="890" width="150" height="60" as="geometry" />
        </mxCell>
        <mxCell id="8XuL1x-wbhf8CoLdvdzy-19" style="edgeStyle=orthogonalEdgeStyle;rounded=0;orthogonalLoop=1;jettySize=auto;html=1;entryX=0.5;entryY=0;entryDx=0;entryDy=0;endArrow=none;endFill=0;" edge="1" parent="1" source="8XuL1x-wbhf8CoLdvdzy-20" target="8XuL1x-wbhf8CoLdvdzy-25">
          <mxGeometry relative="1" as="geometry" />
        </mxCell>
        <mxCell id="8XuL1x-wbhf8CoLdvdzy-20" value="I&lt;br&gt;A1" style="text;html=1;strokeColor=none;fillColor=none;align=center;verticalAlign=middle;whiteSpace=wrap;rounded=0;" vertex="1" parent="1">
          <mxGeometry x="40" y="890" width="150" height="60" as="geometry" />
        </mxCell>
        <mxCell id="8XuL1x-wbhf8CoLdvdzy-21" style="edgeStyle=orthogonalEdgeStyle;rounded=0;orthogonalLoop=1;jettySize=auto;html=1;entryX=0.5;entryY=0;entryDx=0;entryDy=0;endArrow=none;endFill=0;" edge="1" parent="1" source="8XuL1x-wbhf8CoLdvdzy-22" target="8XuL1x-wbhf8CoLdvdzy-20">
          <mxGeometry relative="1" as="geometry" />
        </mxCell>
        <mxCell id="8XuL1x-wbhf8CoLdvdzy-22" value="Write&lt;br&gt;(FOutFile, Worker);" style="shape=parallelogram;perimeter=parallelogramPerimeter;whiteSpace=wrap;html=1;fixedSize=1;" vertex="1" parent="1">
          <mxGeometry x="40" y="810" width="150" height="60" as="geometry" />
        </mxCell>
        <mxCell id="8XuL1x-wbhf8CoLdvdzy-23" style="edgeStyle=orthogonalEdgeStyle;rounded=0;orthogonalLoop=1;jettySize=auto;html=1;entryX=0.5;entryY=0;entryDx=0;entryDy=0;endArrow=none;endFill=0;" edge="1" parent="1" source="8XuL1x-wbhf8CoLdvdzy-24" target="8XuL1x-wbhf8CoLdvdzy-22">
          <mxGeometry relative="1" as="geometry" />
        </mxCell>
        <mxCell id="8XuL1x-wbhf8CoLdvdzy-24" value="Worker := Workers[I - 1];" style="rounded=0;whiteSpace=wrap;html=1;" vertex="1" parent="1">
          <mxGeometry x="40" y="730" width="150" height="60" as="geometry" />
        </mxCell>
        <mxCell id="8XuL1x-wbhf8CoLdvdzy-27" style="edgeStyle=orthogonalEdgeStyle;rounded=0;orthogonalLoop=1;jettySize=auto;html=1;entryX=0.5;entryY=0;entryDx=0;entryDy=0;endArrow=none;endFill=0;" edge="1" parent="1" source="8XuL1x-wbhf8CoLdvdzy-25" target="Nk5VmOWkJlFsqhGpahAX-76">
          <mxGeometry relative="1" as="geometry" />
        </mxCell>
        <mxCell id="8XuL1x-wbhf8CoLdvdzy-25" value="CloseFile(FInFile);" style="rounded=0;whiteSpace=wrap;html=1;" vertex="1" parent="1">
          <mxGeometry x="40" y="970" width="150" height="60" as="geometry" />
        </mxCell>
        <mxCell id="DoO7kr2RQS8Sdk2IxT3k-1" style="edgeStyle=orthogonalEdgeStyle;rounded=0;orthogonalLoop=1;jettySize=auto;html=1;entryX=0.5;entryY=0;entryDx=0;entryDy=0;endArrow=none;endFill=0;" edge="1" parent="1" source="DoO7kr2RQS8Sdk2IxT3k-2" target="DoO7kr2RQS8Sdk2IxT3k-4">
          <mxGeometry relative="1" as="geometry" />
        </mxCell>
        <mxCell id="DoO7kr2RQS8Sdk2IxT3k-2" value="Procedure TuVCLMain.&lt;br&gt;BitBtAddWorkerClick&lt;br&gt;(Sender: TObject);" style="rounded=1;whiteSpace=wrap;html=1;arcSize=50;" vertex="1" parent="1">
          <mxGeometry x="210" y="490" width="150" height="60" as="geometry" />
        </mxCell>
        <mxCell id="DoO7kr2RQS8Sdk2IxT3k-3" style="edgeStyle=orthogonalEdgeStyle;rounded=0;orthogonalLoop=1;jettySize=auto;html=1;entryX=0.5;entryY=0;entryDx=0;entryDy=0;endArrow=none;endFill=0;" edge="1" parent="1" source="DoO7kr2RQS8Sdk2IxT3k-4" target="DoO7kr2RQS8Sdk2IxT3k-6">
          <mxGeometry relative="1" as="geometry" />
        </mxCell>
        <mxCell id="DoO7kr2RQS8Sdk2IxT3k-4" value="&lt;font style=&quot;font-size: 10px;&quot;&gt;StrGrWorkers.RowCount := StrGrWorkers.RowCount + 1;&lt;/font&gt;" style="rounded=0;whiteSpace=wrap;html=1;" vertex="1" parent="1">
          <mxGeometry x="210" y="570" width="150" height="60" as="geometry" />
        </mxCell>
        <mxCell id="DoO7kr2RQS8Sdk2IxT3k-5" style="edgeStyle=orthogonalEdgeStyle;rounded=0;orthogonalLoop=1;jettySize=auto;html=1;entryX=0.5;entryY=0;entryDx=0;entryDy=0;endArrow=none;endFill=0;" edge="1" parent="1" source="DoO7kr2RQS8Sdk2IxT3k-6" target="DoO7kr2RQS8Sdk2IxT3k-8">
          <mxGeometry relative="1" as="geometry" />
        </mxCell>
        <mxCell id="DoO7kr2RQS8Sdk2IxT3k-6" value="&lt;font style=&quot;font-size: 10px;&quot;&gt;StrGrWorkers.Cells[0, StrGrWorkers.RowCount - 1] :=&lt;br&gt;&amp;nbsp;IntToStr(StrGrWorkers.RowCount - 1);&lt;/font&gt;" style="rounded=0;whiteSpace=wrap;html=1;" vertex="1" parent="1">
          <mxGeometry x="210" y="650" width="150" height="60" as="geometry" />
        </mxCell>
        <mxCell id="DoO7kr2RQS8Sdk2IxT3k-7" style="edgeStyle=orthogonalEdgeStyle;rounded=0;orthogonalLoop=1;jettySize=auto;html=1;entryX=0.5;entryY=0;entryDx=0;entryDy=0;endArrow=none;endFill=0;" edge="1" parent="1" source="DoO7kr2RQS8Sdk2IxT3k-8" target="DoO7kr2RQS8Sdk2IxT3k-9">
          <mxGeometry relative="1" as="geometry" />
        </mxCell>
        <mxCell id="DoO7kr2RQS8Sdk2IxT3k-8" value="&lt;div&gt;&lt;font style=&quot;font-size: 10px;&quot;&gt;BitBtDeleteWorker.Enabled := (StrGrWorkers.RowCount &amp;gt; 2);&lt;/font&gt;&lt;/div&gt;&lt;div&gt;&lt;span style=&quot;font-size: 10px;&quot;&gt;&amp;nbsp; &amp;nbsp; BtSaveFile.Enabled := False;&lt;/span&gt;&lt;/div&gt;" style="rounded=0;whiteSpace=wrap;html=1;" vertex="1" parent="1">
          <mxGeometry x="210" y="730" width="150" height="60" as="geometry" />
        </mxCell>
        <mxCell id="DoO7kr2RQS8Sdk2IxT3k-9" value="Конец" style="rounded=1;whiteSpace=wrap;html=1;arcSize=50;" vertex="1" parent="1">
          <mxGeometry x="210" y="810" width="150" height="60" as="geometry" />
        </mxCell>
      </root>
    </mxGraphModel>
  </diagram>
  <diagram id="ecL4qvVGD-3JdTQhUZvR" name="Page-2">
    <mxGraphModel dx="4148" dy="2248" grid="1" gridSize="10" guides="1" tooltips="1" connect="1" arrows="1" fold="1" page="1" pageScale="1" pageWidth="827" pageHeight="1169" math="0" shadow="0">
      <root>
        <mxCell id="0" />
        <mxCell id="1" parent="0" />
        <mxCell id="x5I6y70qs82dyArCoDpu-7" style="edgeStyle=orthogonalEdgeStyle;rounded=0;orthogonalLoop=1;jettySize=auto;html=1;entryX=0.5;entryY=0;entryDx=0;entryDy=0;endArrow=none;endFill=0;" edge="1" parent="1" source="Bu9ATp3aDd0kf9FYStGU-2" target="wPz6WaVLFCEb4uMLOnlU-1">
          <mxGeometry relative="1" as="geometry" />
        </mxCell>
        <mxCell id="Bu9ATp3aDd0kf9FYStGU-2" value="Append(FOutFileTxt);" style="rounded=0;whiteSpace=wrap;html=1;" vertex="1" parent="1">
          <mxGeometry x="40" y="100" width="150" height="60" as="geometry" />
        </mxCell>
        <mxCell id="Bu9ATp3aDd0kf9FYStGU-3" style="edgeStyle=orthogonalEdgeStyle;rounded=0;orthogonalLoop=1;jettySize=auto;html=1;entryX=0.5;entryY=0;entryDx=0;entryDy=0;endArrow=none;endFill=0;" edge="1" parent="1" source="Bu9ATp3aDd0kf9FYStGU-4" target="Bu9ATp3aDd0kf9FYStGU-2">
          <mxGeometry relative="1" as="geometry" />
        </mxCell>
        <mxCell id="Bu9ATp3aDd0kf9FYStGU-4" value="Procedure TFileWriter.WriteStr(Const Str: String);" style="rounded=1;whiteSpace=wrap;html=1;arcSize=50;" vertex="1" parent="1">
          <mxGeometry x="40" y="20" width="150" height="60" as="geometry" />
        </mxCell>
        <mxCell id="Bu9ATp3aDd0kf9FYStGU-5" value="Конец" style="rounded=1;whiteSpace=wrap;html=1;arcSize=50;" vertex="1" parent="1">
          <mxGeometry x="40" y="500" width="150" height="60" as="geometry" />
        </mxCell>
        <mxCell id="x5I6y70qs82dyArCoDpu-9" style="edgeStyle=orthogonalEdgeStyle;rounded=0;orthogonalLoop=1;jettySize=auto;html=1;entryX=0.5;entryY=0;entryDx=0;entryDy=0;endArrow=none;endFill=0;" edge="1" parent="1" source="Bu9ATp3aDd0kf9FYStGU-6" target="x5I6y70qs82dyArCoDpu-3">
          <mxGeometry relative="1" as="geometry" />
        </mxCell>
        <mxCell id="Bu9ATp3aDd0kf9FYStGU-6" value="&amp;nbsp; &amp;nbsp; &amp;nbsp; &amp;nbsp; CloseFile(FOutFileTxt);" style="rounded=0;whiteSpace=wrap;html=1;" vertex="1" parent="1">
          <mxGeometry x="40" y="260" width="150" height="60" as="geometry" />
        </mxCell>
        <mxCell id="x5I6y70qs82dyArCoDpu-8" style="edgeStyle=orthogonalEdgeStyle;rounded=0;orthogonalLoop=1;jettySize=auto;html=1;entryX=0.5;entryY=0;entryDx=0;entryDy=0;endArrow=none;endFill=0;" edge="1" parent="1" source="wPz6WaVLFCEb4uMLOnlU-1" target="Bu9ATp3aDd0kf9FYStGU-6">
          <mxGeometry relative="1" as="geometry" />
        </mxCell>
        <mxCell id="wPz6WaVLFCEb4uMLOnlU-1" value="Write(FOutFileTxt, Str);" style="shape=parallelogram;perimeter=parallelogramPerimeter;whiteSpace=wrap;html=1;fixedSize=1;" vertex="1" parent="1">
          <mxGeometry x="40" y="180" width="150" height="60" as="geometry" />
        </mxCell>
        <mxCell id="x5I6y70qs82dyArCoDpu-1" style="edgeStyle=orthogonalEdgeStyle;rounded=0;orthogonalLoop=1;jettySize=auto;html=1;entryX=0.5;entryY=0;entryDx=0;entryDy=0;endArrow=none;endFill=0;" edge="1" parent="1" source="x5I6y70qs82dyArCoDpu-3">
          <mxGeometry relative="1" as="geometry">
            <mxPoint x="315" y="420" as="targetPoint" />
          </mxGeometry>
        </mxCell>
        <mxCell id="x5I6y70qs82dyArCoDpu-2" style="edgeStyle=orthogonalEdgeStyle;rounded=0;orthogonalLoop=1;jettySize=auto;html=1;entryX=0.5;entryY=0;entryDx=0;entryDy=0;endArrow=none;endFill=0;" edge="1" parent="1" source="x5I6y70qs82dyArCoDpu-3">
          <mxGeometry relative="1" as="geometry">
            <mxPoint x="115" y="500" as="targetPoint" />
          </mxGeometry>
        </mxCell>
        <mxCell id="x5I6y70qs82dyArCoDpu-3" value="Except" style="rhombus;whiteSpace=wrap;html=1;" vertex="1" parent="1">
          <mxGeometry x="40" y="340" width="150" height="60" as="geometry" />
        </mxCell>
        <mxCell id="x5I6y70qs82dyArCoDpu-4" value="" style="endArrow=classic;html=1;rounded=0;exitX=0.5;exitY=1;exitDx=0;exitDy=0;" edge="1" parent="1" source="x5I6y70qs82dyArCoDpu-6">
          <mxGeometry width="50" height="50" relative="1" as="geometry">
            <mxPoint x="315" y="821" as="sourcePoint" />
            <mxPoint x="115" y="479" as="targetPoint" />
            <Array as="points">
              <mxPoint x="315" y="480" />
            </Array>
          </mxGeometry>
        </mxCell>
        <mxCell id="x5I6y70qs82dyArCoDpu-5" value="Да" style="text;html=1;align=center;verticalAlign=middle;resizable=0;points=[];autosize=1;strokeColor=none;fillColor=none;" vertex="1" parent="1">
          <mxGeometry x="185" y="340" width="40" height="30" as="geometry" />
        </mxCell>
        <mxCell id="x5I6y70qs82dyArCoDpu-6" value="FFileStatus := FsUnexpected;" style="rounded=0;whiteSpace=wrap;html=1;" vertex="1" parent="1">
          <mxGeometry x="240" y="400" width="150" height="60" as="geometry" />
        </mxCell>
        <mxCell id="GXZhAKnjdmDUhFf9rSoE-4" style="edgeStyle=orthogonalEdgeStyle;rounded=0;orthogonalLoop=1;jettySize=auto;html=1;entryX=0.5;entryY=0;entryDx=0;entryDy=0;endArrow=none;endFill=0;" edge="1" parent="1" source="cJEf-AW53Q0u0-w5i1tN-1" target="cJEf-AW53Q0u0-w5i1tN-2">
          <mxGeometry relative="1" as="geometry" />
        </mxCell>
        <mxCell id="cJEf-AW53Q0u0-w5i1tN-1" value="Procedure TuVCLMain.&lt;br&gt;BitbtShowDopInfoClick&lt;br&gt;(Sender: TObject);" style="rounded=1;whiteSpace=wrap;html=1;arcSize=50;" vertex="1" parent="1">
          <mxGeometry x="460" y="10" width="150" height="60" as="geometry" />
        </mxCell>
        <mxCell id="GXZhAKnjdmDUhFf9rSoE-5" style="edgeStyle=orthogonalEdgeStyle;rounded=0;orthogonalLoop=1;jettySize=auto;html=1;entryX=0.5;entryY=0;entryDx=0;entryDy=0;endArrow=none;endFill=0;" edge="1" parent="1" source="cJEf-AW53Q0u0-w5i1tN-2" target="cJEf-AW53Q0u0-w5i1tN-3">
          <mxGeometry relative="1" as="geometry" />
        </mxCell>
        <mxCell id="cJEf-AW53Q0u0-w5i1tN-2" value="&lt;div&gt;IsCompanyExist := False;&lt;/div&gt;&lt;div&gt;CurCompany := ECompany.Text;&lt;/div&gt;" style="rounded=0;whiteSpace=wrap;html=1;" vertex="1" parent="1">
          <mxGeometry x="460" y="90" width="150" height="60" as="geometry" />
        </mxCell>
        <mxCell id="GXZhAKnjdmDUhFf9rSoE-6" style="edgeStyle=orthogonalEdgeStyle;rounded=0;orthogonalLoop=1;jettySize=auto;html=1;entryX=0.5;entryY=0;entryDx=0;entryDy=0;endArrow=none;endFill=0;" edge="1" parent="1" source="cJEf-AW53Q0u0-w5i1tN-3" target="cJEf-AW53Q0u0-w5i1tN-8">
          <mxGeometry relative="1" as="geometry" />
        </mxCell>
        <mxCell id="cJEf-AW53Q0u0-w5i1tN-3" value="A1&lt;br&gt;I := 1 To Workers.Count" style="shape=loopLimit;whiteSpace=wrap;html=1;" vertex="1" parent="1">
          <mxGeometry x="460" y="170" width="150" height="60" as="geometry" />
        </mxCell>
        <mxCell id="cJEf-AW53Q0u0-w5i1tN-4" value="" style="shape=loopLimit;whiteSpace=wrap;html=1;rotation=-180;" vertex="1" parent="1">
          <mxGeometry x="460" y="410" width="150" height="60" as="geometry" />
        </mxCell>
        <mxCell id="GXZhAKnjdmDUhFf9rSoE-54" style="edgeStyle=orthogonalEdgeStyle;rounded=0;orthogonalLoop=1;jettySize=auto;html=1;entryX=0.5;entryY=0;entryDx=0;entryDy=0;endArrow=none;endFill=0;" edge="1" parent="1" source="cJEf-AW53Q0u0-w5i1tN-5" target="GXZhAKnjdmDUhFf9rSoE-51">
          <mxGeometry relative="1" as="geometry" />
        </mxCell>
        <mxCell id="cJEf-AW53Q0u0-w5i1tN-5" value="I&lt;br&gt;A1" style="text;html=1;strokeColor=none;fillColor=none;align=center;verticalAlign=middle;whiteSpace=wrap;rounded=0;" vertex="1" parent="1">
          <mxGeometry x="460" y="410" width="150" height="60" as="geometry" />
        </mxCell>
        <mxCell id="cJEf-AW53Q0u0-w5i1tN-6" style="edgeStyle=orthogonalEdgeStyle;rounded=0;orthogonalLoop=1;jettySize=auto;html=1;entryX=0.5;entryY=0;entryDx=0;entryDy=0;endArrow=none;endFill=0;" edge="1" parent="1" source="cJEf-AW53Q0u0-w5i1tN-8">
          <mxGeometry relative="1" as="geometry">
            <mxPoint x="735" y="330" as="targetPoint" />
          </mxGeometry>
        </mxCell>
        <mxCell id="cJEf-AW53Q0u0-w5i1tN-7" style="edgeStyle=orthogonalEdgeStyle;rounded=0;orthogonalLoop=1;jettySize=auto;html=1;entryX=0.5;entryY=0;entryDx=0;entryDy=0;endArrow=none;endFill=0;" edge="1" parent="1" source="cJEf-AW53Q0u0-w5i1tN-8">
          <mxGeometry relative="1" as="geometry">
            <mxPoint x="535" y="410" as="targetPoint" />
          </mxGeometry>
        </mxCell>
        <mxCell id="cJEf-AW53Q0u0-w5i1tN-8" value="" style="rhombus;whiteSpace=wrap;html=1;" vertex="1" parent="1">
          <mxGeometry x="460" y="250" width="150" height="60" as="geometry" />
        </mxCell>
        <mxCell id="cJEf-AW53Q0u0-w5i1tN-9" value="" style="endArrow=classic;html=1;rounded=0;exitX=0.5;exitY=1;exitDx=0;exitDy=0;" edge="1" parent="1" source="cJEf-AW53Q0u0-w5i1tN-11">
          <mxGeometry width="50" height="50" relative="1" as="geometry">
            <mxPoint x="735" y="731" as="sourcePoint" />
            <mxPoint x="535" y="389" as="targetPoint" />
            <Array as="points">
              <mxPoint x="735" y="390" />
            </Array>
          </mxGeometry>
        </mxCell>
        <mxCell id="cJEf-AW53Q0u0-w5i1tN-10" value="Да" style="text;html=1;align=center;verticalAlign=middle;resizable=0;points=[];autosize=1;strokeColor=none;fillColor=none;" vertex="1" parent="1">
          <mxGeometry x="605" y="250" width="40" height="30" as="geometry" />
        </mxCell>
        <mxCell id="cJEf-AW53Q0u0-w5i1tN-11" value="IsCompanyExist := True;" style="rounded=0;whiteSpace=wrap;html=1;" vertex="1" parent="1">
          <mxGeometry x="660" y="310" width="150" height="60" as="geometry" />
        </mxCell>
        <mxCell id="GXZhAKnjdmDUhFf9rSoE-1" value="" style="strokeWidth=1;html=1;shape=mxgraph.flowchart.annotation_2;align=left;labelPosition=right;pointerEvents=1;rotation=-180;" vertex="1" parent="1">
          <mxGeometry x="407" y="250" width="20" height="60" as="geometry" />
        </mxCell>
        <mxCell id="GXZhAKnjdmDUhFf9rSoE-2" value="&lt;font style=&quot;font-size: 10px;&quot;&gt;Not IsCompanyExist And (Workers[I - 1].&lt;br&gt;CompanyName = CurCompany)&lt;/font&gt;" style="text;html=1;strokeColor=none;fillColor=none;align=center;verticalAlign=middle;whiteSpace=wrap;rounded=0;" vertex="1" parent="1">
          <mxGeometry x="290" y="250" width="120" height="60" as="geometry" />
        </mxCell>
        <mxCell id="GXZhAKnjdmDUhFf9rSoE-3" style="edgeStyle=orthogonalEdgeStyle;rounded=0;orthogonalLoop=1;jettySize=auto;html=1;entryX=0;entryY=0.5;entryDx=0;entryDy=0;entryPerimeter=0;endArrow=none;endFill=0;dashed=1;dashPattern=8 8;exitX=0;exitY=0.5;exitDx=0;exitDy=0;" edge="1" parent="1" source="cJEf-AW53Q0u0-w5i1tN-8" target="GXZhAKnjdmDUhFf9rSoE-1">
          <mxGeometry relative="1" as="geometry">
            <mxPoint x="450.0000000000002" y="279.9999999999999" as="sourcePoint" />
          </mxGeometry>
        </mxCell>
        <mxCell id="GXZhAKnjdmDUhFf9rSoE-51" value="A" style="ellipse;whiteSpace=wrap;html=1;aspect=fixed;" vertex="1" parent="1">
          <mxGeometry x="520" y="490" width="30" height="30" as="geometry" />
        </mxCell>
      </root>
    </mxGraphModel>
  </diagram>
  <diagram id="lZ5j61sUhCJcrplg9c8S" name="Page-3">
    <mxGraphModel dx="2074" dy="1124" grid="1" gridSize="10" guides="1" tooltips="1" connect="1" arrows="1" fold="1" page="1" pageScale="1" pageWidth="827" pageHeight="1169" math="0" shadow="0">
      <root>
        <mxCell id="0" />
        <mxCell id="1" parent="0" />
        <mxCell id="7R9vrwCuX35JA6a-9wM3-1" style="edgeStyle=orthogonalEdgeStyle;rounded=0;orthogonalLoop=1;jettySize=auto;html=1;entryX=0.5;entryY=0;entryDx=0;entryDy=0;endArrow=none;endFill=0;" edge="1" parent="1" source="7R9vrwCuX35JA6a-9wM3-2" target="7R9vrwCuX35JA6a-9wM3-4">
          <mxGeometry relative="1" as="geometry" />
        </mxCell>
        <mxCell id="7R9vrwCuX35JA6a-9wM3-2" value="&lt;font style=&quot;font-size: 10px;&quot;&gt;Procedure TuVCLMain.&lt;br&gt;BitBtDeleteWorkerClick&lt;br&gt;(Sender: TObject);&lt;/font&gt;" style="rounded=1;whiteSpace=wrap;html=1;arcSize=50;" vertex="1" parent="1">
          <mxGeometry x="170" y="20" width="150" height="60" as="geometry" />
        </mxCell>
        <mxCell id="7R9vrwCuX35JA6a-9wM3-3" style="edgeStyle=orthogonalEdgeStyle;rounded=0;orthogonalLoop=1;jettySize=auto;html=1;entryX=0.5;entryY=0;entryDx=0;entryDy=0;endArrow=none;endFill=0;" edge="1" parent="1" source="7R9vrwCuX35JA6a-9wM3-4" target="7R9vrwCuX35JA6a-9wM3-6">
          <mxGeometry relative="1" as="geometry" />
        </mxCell>
        <mxCell id="7R9vrwCuX35JA6a-9wM3-4" value="&lt;font style=&quot;font-size: 10px;&quot;&gt;Application.CreateForm&lt;br&gt;(TuVCLDeleter,&lt;br&gt;UVCLDeleter);&lt;/font&gt;" style="shape=process;whiteSpace=wrap;html=1;backgroundOutline=1;" vertex="1" parent="1">
          <mxGeometry x="170" y="100" width="150" height="60" as="geometry" />
        </mxCell>
        <mxCell id="7R9vrwCuX35JA6a-9wM3-5" style="edgeStyle=orthogonalEdgeStyle;rounded=0;orthogonalLoop=1;jettySize=auto;html=1;entryX=0.5;entryY=0;entryDx=0;entryDy=0;endArrow=none;endFill=0;" edge="1" parent="1" source="7R9vrwCuX35JA6a-9wM3-6" target="7R9vrwCuX35JA6a-9wM3-8">
          <mxGeometry relative="1" as="geometry" />
        </mxCell>
        <mxCell id="7R9vrwCuX35JA6a-9wM3-6" value="&lt;div&gt;&lt;font style=&quot;font-size: 10px;&quot;&gt;UVCLDeleter.CountOfWorkers := StrGrWorkers.RowCount -&lt;/font&gt;&lt;/div&gt;&lt;div&gt;&lt;span style=&quot;font-size: 10px;&quot;&gt;StrGrWorkers.FixedRows;&lt;/span&gt;&lt;/div&gt;&lt;div&gt;&lt;span style=&quot;font-size: 10px;&quot;&gt;UVCLDeleter.ShowModal();&lt;/span&gt;&lt;/div&gt;" style="rounded=0;whiteSpace=wrap;html=1;" vertex="1" parent="1">
          <mxGeometry x="170" y="180" width="150" height="60" as="geometry" />
        </mxCell>
        <mxCell id="7R9vrwCuX35JA6a-9wM3-7" style="edgeStyle=orthogonalEdgeStyle;rounded=0;orthogonalLoop=1;jettySize=auto;html=1;entryX=0.5;entryY=0;entryDx=0;entryDy=0;endArrow=none;endFill=0;" edge="1" parent="1" source="7R9vrwCuX35JA6a-9wM3-8" target="7R9vrwCuX35JA6a-9wM3-15">
          <mxGeometry relative="1" as="geometry">
            <mxPoint x="445" y="340" as="targetPoint" />
          </mxGeometry>
        </mxCell>
        <mxCell id="7R9vrwCuX35JA6a-9wM3-8" value="" style="rhombus;whiteSpace=wrap;html=1;" vertex="1" parent="1">
          <mxGeometry x="170" y="260" width="150" height="60" as="geometry" />
        </mxCell>
        <mxCell id="7R9vrwCuX35JA6a-9wM3-9" value="Да" style="text;html=1;align=center;verticalAlign=middle;resizable=0;points=[];autosize=1;strokeColor=none;fillColor=none;" vertex="1" parent="1">
          <mxGeometry x="315" y="260" width="40" height="30" as="geometry" />
        </mxCell>
        <mxCell id="7R9vrwCuX35JA6a-9wM3-10" value="Нет" style="text;html=1;align=center;verticalAlign=middle;resizable=0;points=[];autosize=1;strokeColor=none;fillColor=none;" vertex="1" parent="1">
          <mxGeometry x="205" y="320" width="40" height="30" as="geometry" />
        </mxCell>
        <mxCell id="7R9vrwCuX35JA6a-9wM3-11" value="" style="strokeWidth=1;html=1;shape=mxgraph.flowchart.annotation_2;align=left;labelPosition=right;pointerEvents=1;rotation=-180;" vertex="1" parent="1">
          <mxGeometry x="117" y="260" width="20" height="60" as="geometry" />
        </mxCell>
        <mxCell id="7R9vrwCuX35JA6a-9wM3-12" style="edgeStyle=orthogonalEdgeStyle;rounded=0;orthogonalLoop=1;jettySize=auto;html=1;exitX=0;exitY=0.5;exitDx=0;exitDy=0;entryX=0;entryY=0.5;entryDx=0;entryDy=0;entryPerimeter=0;endArrow=none;endFill=0;dashed=1;dashPattern=8 8;" edge="1" parent="1" source="7R9vrwCuX35JA6a-9wM3-8" target="7R9vrwCuX35JA6a-9wM3-11">
          <mxGeometry relative="1" as="geometry" />
        </mxCell>
        <mxCell id="7R9vrwCuX35JA6a-9wM3-13" value="&lt;font style=&quot;font-size: 10px;&quot;&gt;UVCLDeleter.IsChosen And (StrGrWorkers.RowCount &amp;gt; 2)&lt;/font&gt;" style="text;html=1;strokeColor=none;fillColor=none;align=center;verticalAlign=middle;whiteSpace=wrap;rounded=0;" vertex="1" parent="1">
          <mxGeometry y="260" width="120" height="60" as="geometry" />
        </mxCell>
        <mxCell id="7R9vrwCuX35JA6a-9wM3-14" style="edgeStyle=orthogonalEdgeStyle;rounded=0;orthogonalLoop=1;jettySize=auto;html=1;entryX=0.5;entryY=0;entryDx=0;entryDy=0;endArrow=none;endFill=0;" edge="1" parent="1" source="7R9vrwCuX35JA6a-9wM3-15" target="7R9vrwCuX35JA6a-9wM3-17">
          <mxGeometry relative="1" as="geometry" />
        </mxCell>
        <mxCell id="7R9vrwCuX35JA6a-9wM3-15" value="&lt;font style=&quot;font-size: 10px;&quot;&gt;IndexOfDeletedWorker := StrToInt&lt;br&gt;(UVCLDeleter.&lt;br&gt;ENumberOfWorker.Text);&lt;/font&gt;" style="rounded=0;whiteSpace=wrap;html=1;" vertex="1" parent="1">
          <mxGeometry x="507" y="320" width="150" height="60" as="geometry" />
        </mxCell>
        <mxCell id="7R9vrwCuX35JA6a-9wM3-16" style="edgeStyle=orthogonalEdgeStyle;rounded=0;orthogonalLoop=1;jettySize=auto;html=1;entryX=0.5;entryY=0;entryDx=0;entryDy=0;endArrow=none;endFill=0;" edge="1" parent="1" source="7R9vrwCuX35JA6a-9wM3-17" target="7R9vrwCuX35JA6a-9wM3-22">
          <mxGeometry relative="1" as="geometry" />
        </mxCell>
        <mxCell id="7R9vrwCuX35JA6a-9wM3-17" value="&lt;font style=&quot;font-size: 10px;&quot;&gt;A1&lt;br&gt;I := IndexOfDeletedWorker To StrGrWorkers.RowCount - 1&lt;/font&gt;" style="shape=loopLimit;whiteSpace=wrap;html=1;" vertex="1" parent="1">
          <mxGeometry x="507" y="400" width="150" height="60" as="geometry" />
        </mxCell>
        <mxCell id="7R9vrwCuX35JA6a-9wM3-18" value="" style="shape=loopLimit;whiteSpace=wrap;html=1;rotation=-180;" vertex="1" parent="1">
          <mxGeometry x="507" y="720" width="150" height="60" as="geometry" />
        </mxCell>
        <mxCell id="7R9vrwCuX35JA6a-9wM3-19" style="edgeStyle=orthogonalEdgeStyle;rounded=0;orthogonalLoop=1;jettySize=auto;html=1;entryX=0.5;entryY=0;entryDx=0;entryDy=0;endArrow=none;endFill=0;" edge="1" parent="1" source="7R9vrwCuX35JA6a-9wM3-20" target="7R9vrwCuX35JA6a-9wM3-28">
          <mxGeometry relative="1" as="geometry" />
        </mxCell>
        <mxCell id="7R9vrwCuX35JA6a-9wM3-20" value="&lt;font style=&quot;font-size: 10px;&quot;&gt;I&lt;br&gt;A1&lt;/font&gt;" style="text;html=1;strokeColor=none;fillColor=none;align=center;verticalAlign=middle;whiteSpace=wrap;rounded=0;" vertex="1" parent="1">
          <mxGeometry x="507" y="720" width="150" height="60" as="geometry" />
        </mxCell>
        <mxCell id="7R9vrwCuX35JA6a-9wM3-21" style="edgeStyle=orthogonalEdgeStyle;rounded=0;orthogonalLoop=1;jettySize=auto;html=1;entryX=0.5;entryY=0;entryDx=0;entryDy=0;endArrow=none;endFill=0;" edge="1" parent="1" source="7R9vrwCuX35JA6a-9wM3-22" target="7R9vrwCuX35JA6a-9wM3-24">
          <mxGeometry relative="1" as="geometry" />
        </mxCell>
        <mxCell id="7R9vrwCuX35JA6a-9wM3-22" value="&lt;div&gt;&lt;font style=&quot;font-size: 10px;&quot;&gt;StrGrWorkers.Cells[1, I] := StrGrWorkers.Cells[1, I + 1];&lt;/font&gt;&lt;/div&gt;&lt;div&gt;&lt;span style=&quot;font-size: 10px;&quot;&gt;StrGrWorkers.Cells[2, I] := StrGrWorkers.Cells[2, I + 1];&lt;/span&gt;&lt;/div&gt;" style="rounded=0;whiteSpace=wrap;html=1;" vertex="1" parent="1">
          <mxGeometry x="507" y="480" width="150" height="60" as="geometry" />
        </mxCell>
        <mxCell id="7R9vrwCuX35JA6a-9wM3-23" style="edgeStyle=orthogonalEdgeStyle;rounded=0;orthogonalLoop=1;jettySize=auto;html=1;entryX=0.5;entryY=0;entryDx=0;entryDy=0;endArrow=none;endFill=0;" edge="1" parent="1" source="7R9vrwCuX35JA6a-9wM3-24" target="7R9vrwCuX35JA6a-9wM3-26">
          <mxGeometry relative="1" as="geometry" />
        </mxCell>
        <mxCell id="7R9vrwCuX35JA6a-9wM3-24" value="&lt;div&gt;&lt;font style=&quot;font-size: 10px;&quot;&gt;StrGrWorkers.Cells[3, I] := StrGrWorkers.Cells[3, I + 1];&lt;/font&gt;&lt;/div&gt;&lt;div&gt;&lt;span style=&quot;font-size: 10px;&quot;&gt;StrGrWorkers.Cells[4, I] := StrGrWorkers.Cells[4, I + 1];&lt;/span&gt;&lt;/div&gt;" style="rounded=0;whiteSpace=wrap;html=1;" vertex="1" parent="1">
          <mxGeometry x="507" y="564" width="150" height="60" as="geometry" />
        </mxCell>
        <mxCell id="7R9vrwCuX35JA6a-9wM3-25" style="edgeStyle=orthogonalEdgeStyle;rounded=0;orthogonalLoop=1;jettySize=auto;html=1;entryX=0.5;entryY=0;entryDx=0;entryDy=0;endArrow=none;endFill=0;" edge="1" parent="1" source="7R9vrwCuX35JA6a-9wM3-26" target="7R9vrwCuX35JA6a-9wM3-20">
          <mxGeometry relative="1" as="geometry" />
        </mxCell>
        <mxCell id="7R9vrwCuX35JA6a-9wM3-26" value="&lt;font style=&quot;font-size: 10px;&quot;&gt;StrGrWorkers.Cells[5, I] := StrGrWorkers.Cells[5, I + 1];&lt;/font&gt;" style="rounded=0;whiteSpace=wrap;html=1;" vertex="1" parent="1">
          <mxGeometry x="507" y="640" width="150" height="60" as="geometry" />
        </mxCell>
        <mxCell id="7R9vrwCuX35JA6a-9wM3-27" style="edgeStyle=orthogonalEdgeStyle;rounded=0;orthogonalLoop=1;jettySize=auto;html=1;entryX=0.5;entryY=0;entryDx=0;entryDy=0;endArrow=none;endFill=0;" edge="1" parent="1" source="7R9vrwCuX35JA6a-9wM3-28" target="7R9vrwCuX35JA6a-9wM3-40">
          <mxGeometry relative="1" as="geometry" />
        </mxCell>
        <mxCell id="7R9vrwCuX35JA6a-9wM3-28" value="&lt;div&gt;&lt;font style=&quot;font-size: 10px;&quot;&gt;ClearRow(StrGrWorkers.&lt;/font&gt;&lt;/div&gt;&lt;div&gt;&lt;font style=&quot;font-size: 10px;&quot;&gt;RowCount);&lt;/font&gt;&lt;/div&gt;&lt;div&gt;&lt;span style=&quot;font-size: 10px; background-color: initial;&quot;&gt;StrGrWorkers.RowCount := StrGrWorkers.RowCount - 1;&lt;/span&gt;&lt;br&gt;&lt;/div&gt;" style="rounded=0;whiteSpace=wrap;html=1;" vertex="1" parent="1">
          <mxGeometry x="507" y="800" width="150" height="60" as="geometry" />
        </mxCell>
        <mxCell id="7R9vrwCuX35JA6a-9wM3-29" style="edgeStyle=orthogonalEdgeStyle;rounded=0;orthogonalLoop=1;jettySize=auto;html=1;entryX=0.5;entryY=0;entryDx=0;entryDy=0;endArrow=none;endFill=0;exitX=0.5;exitY=1;exitDx=0;exitDy=0;" edge="1" parent="1" source="7R9vrwCuX35JA6a-9wM3-8" target="7R9vrwCuX35JA6a-9wM3-32">
          <mxGeometry relative="1" as="geometry">
            <mxPoint x="245" y="350" as="sourcePoint" />
          </mxGeometry>
        </mxCell>
        <mxCell id="7R9vrwCuX35JA6a-9wM3-30" style="edgeStyle=orthogonalEdgeStyle;rounded=0;orthogonalLoop=1;jettySize=auto;html=1;entryX=0.5;entryY=0;entryDx=0;entryDy=0;endArrow=none;endFill=0;" edge="1" parent="1" source="7R9vrwCuX35JA6a-9wM3-32" target="7R9vrwCuX35JA6a-9wM3-37">
          <mxGeometry relative="1" as="geometry" />
        </mxCell>
        <mxCell id="7R9vrwCuX35JA6a-9wM3-31" style="edgeStyle=orthogonalEdgeStyle;rounded=0;orthogonalLoop=1;jettySize=auto;html=1;exitX=0.5;exitY=1;exitDx=0;exitDy=0;entryX=0.5;entryY=0;entryDx=0;entryDy=0;endArrow=none;endFill=0;" edge="1" parent="1" source="7R9vrwCuX35JA6a-9wM3-32" target="7R9vrwCuX35JA6a-9wM3-45">
          <mxGeometry relative="1" as="geometry" />
        </mxCell>
        <mxCell id="7R9vrwCuX35JA6a-9wM3-32" value="" style="rhombus;whiteSpace=wrap;html=1;" vertex="1" parent="1">
          <mxGeometry x="170" y="370" width="150" height="60" as="geometry" />
        </mxCell>
        <mxCell id="7R9vrwCuX35JA6a-9wM3-33" value="Нет" style="text;html=1;align=center;verticalAlign=middle;resizable=0;points=[];autosize=1;strokeColor=none;fillColor=none;" vertex="1" parent="1">
          <mxGeometry x="205" y="430" width="40" height="30" as="geometry" />
        </mxCell>
        <mxCell id="7R9vrwCuX35JA6a-9wM3-34" value="" style="strokeWidth=1;html=1;shape=mxgraph.flowchart.annotation_2;align=left;labelPosition=right;pointerEvents=1;rotation=-180;" vertex="1" parent="1">
          <mxGeometry x="117" y="370" width="20" height="60" as="geometry" />
        </mxCell>
        <mxCell id="7R9vrwCuX35JA6a-9wM3-35" style="edgeStyle=orthogonalEdgeStyle;rounded=0;orthogonalLoop=1;jettySize=auto;html=1;exitX=0;exitY=0.5;exitDx=0;exitDy=0;entryX=0;entryY=0.5;entryDx=0;entryDy=0;entryPerimeter=0;endArrow=none;endFill=0;dashed=1;dashPattern=8 8;" edge="1" parent="1" source="7R9vrwCuX35JA6a-9wM3-32" target="7R9vrwCuX35JA6a-9wM3-34">
          <mxGeometry relative="1" as="geometry" />
        </mxCell>
        <mxCell id="7R9vrwCuX35JA6a-9wM3-36" value="&lt;font style=&quot;font-size: 10px;&quot;&gt;UVCLDeleter.IsChosen And (StrGrWorkers.RowCount = 2)&lt;/font&gt;" style="text;html=1;strokeColor=none;fillColor=none;align=center;verticalAlign=middle;whiteSpace=wrap;rounded=0;" vertex="1" parent="1">
          <mxGeometry y="370" width="120" height="60" as="geometry" />
        </mxCell>
        <mxCell id="7R9vrwCuX35JA6a-9wM3-37" value="&lt;div&gt;&lt;font style=&quot;font-size: 10px;&quot;&gt;ClearRow(StrGrWorkers.&lt;/font&gt;&lt;/div&gt;&lt;div&gt;&lt;font style=&quot;font-size: 10px;&quot;&gt;FixedRows);&lt;/font&gt;&lt;/div&gt;&lt;div&gt;&lt;span style=&quot;font-size: 10px;&quot;&gt;StrGrWorkers.Cells[0, StrGrWorkers.FixedRows] := &#39;1&#39;;&lt;/span&gt;&lt;/div&gt;" style="rounded=0;whiteSpace=wrap;html=1;" vertex="1" parent="1">
          <mxGeometry x="340" y="450" width="150" height="60" as="geometry" />
        </mxCell>
        <mxCell id="7R9vrwCuX35JA6a-9wM3-38" value="Да" style="text;html=1;align=center;verticalAlign=middle;resizable=0;points=[];autosize=1;strokeColor=none;fillColor=none;" vertex="1" parent="1">
          <mxGeometry x="315" y="370" width="40" height="30" as="geometry" />
        </mxCell>
        <mxCell id="7R9vrwCuX35JA6a-9wM3-39" style="edgeStyle=orthogonalEdgeStyle;rounded=0;orthogonalLoop=1;jettySize=auto;html=1;entryX=0.5;entryY=0;entryDx=0;entryDy=0;endArrow=none;endFill=0;" edge="1" parent="1" source="7R9vrwCuX35JA6a-9wM3-40" target="7R9vrwCuX35JA6a-9wM3-43">
          <mxGeometry relative="1" as="geometry">
            <mxPoint x="782" y="960" as="targetPoint" />
          </mxGeometry>
        </mxCell>
        <mxCell id="7R9vrwCuX35JA6a-9wM3-40" value="&lt;font style=&quot;font-size: 10px;&quot;&gt;IsTableFilled&lt;/font&gt;" style="rhombus;whiteSpace=wrap;html=1;" vertex="1" parent="1">
          <mxGeometry x="507" y="880" width="150" height="60" as="geometry" />
        </mxCell>
        <mxCell id="7R9vrwCuX35JA6a-9wM3-41" value="" style="endArrow=classic;html=1;rounded=0;exitX=0.5;exitY=1;exitDx=0;exitDy=0;" edge="1" parent="1" source="7R9vrwCuX35JA6a-9wM3-43">
          <mxGeometry width="50" height="50" relative="1" as="geometry">
            <mxPoint x="782" y="1361" as="sourcePoint" />
            <mxPoint x="582" y="1019" as="targetPoint" />
            <Array as="points">
              <mxPoint x="752" y="1020" />
            </Array>
          </mxGeometry>
        </mxCell>
        <mxCell id="7R9vrwCuX35JA6a-9wM3-42" value="Да" style="text;html=1;align=center;verticalAlign=middle;resizable=0;points=[];autosize=1;strokeColor=none;fillColor=none;" vertex="1" parent="1">
          <mxGeometry x="652" y="880" width="40" height="30" as="geometry" />
        </mxCell>
        <mxCell id="7R9vrwCuX35JA6a-9wM3-43" value="&lt;font style=&quot;font-size: 10px;&quot;&gt;BtSaveFile.Enabled := True;&lt;/font&gt;" style="rounded=0;whiteSpace=wrap;html=1;" vertex="1" parent="1">
          <mxGeometry x="677" y="940" width="150" height="60" as="geometry" />
        </mxCell>
        <mxCell id="7R9vrwCuX35JA6a-9wM3-44" style="edgeStyle=orthogonalEdgeStyle;rounded=0;orthogonalLoop=1;jettySize=auto;html=1;entryX=0.5;entryY=0;entryDx=0;entryDy=0;endArrow=none;endFill=0;" edge="1" parent="1" source="7R9vrwCuX35JA6a-9wM3-45" target="7R9vrwCuX35JA6a-9wM3-46">
          <mxGeometry relative="1" as="geometry" />
        </mxCell>
        <mxCell id="7R9vrwCuX35JA6a-9wM3-45" value="&lt;font style=&quot;font-size: 10px;&quot;&gt;UVCLDeleter.Destroy();&lt;/font&gt;" style="rounded=0;whiteSpace=wrap;html=1;" vertex="1" parent="1">
          <mxGeometry x="170" y="1060" width="150" height="60" as="geometry" />
        </mxCell>
        <mxCell id="7R9vrwCuX35JA6a-9wM3-46" value="&lt;font style=&quot;font-size: 10px;&quot;&gt;Конец&lt;/font&gt;" style="rounded=1;whiteSpace=wrap;html=1;arcSize=50;" vertex="1" parent="1">
          <mxGeometry x="170" y="1140" width="150" height="60" as="geometry" />
        </mxCell>
        <mxCell id="7R9vrwCuX35JA6a-9wM3-47" value="" style="endArrow=classic;html=1;rounded=0;exitX=0.5;exitY=1;exitDx=0;exitDy=0;" edge="1" parent="1" source="7R9vrwCuX35JA6a-9wM3-37">
          <mxGeometry width="50" height="50" relative="1" as="geometry">
            <mxPoint x="415" y="960" as="sourcePoint" />
            <mxPoint x="245" y="979" as="targetPoint" />
            <Array as="points">
              <mxPoint x="415" y="980" />
            </Array>
          </mxGeometry>
        </mxCell>
        <mxCell id="7R9vrwCuX35JA6a-9wM3-48" value="" style="endArrow=classic;html=1;rounded=0;exitX=0.5;exitY=1;exitDx=0;exitDy=0;" edge="1" parent="1" source="7R9vrwCuX35JA6a-9wM3-40">
          <mxGeometry width="50" height="50" relative="1" as="geometry">
            <mxPoint x="620" y="1050" as="sourcePoint" />
            <mxPoint x="245" y="1030" as="targetPoint" />
            <Array as="points">
              <mxPoint x="582" y="1030" />
            </Array>
          </mxGeometry>
        </mxCell>
      </root>
    </mxGraphModel>
  </diagram>
  <diagram id="S5kw4pJnsC7-p2QFWUF6" name="Page-4">
    <mxGraphModel dx="3321" dy="2248" grid="1" gridSize="10" guides="1" tooltips="1" connect="1" arrows="1" fold="1" page="1" pageScale="1" pageWidth="827" pageHeight="1169" math="0" shadow="0">
      <root>
        <mxCell id="0" />
        <mxCell id="1" parent="0" />
        <mxCell id="WK-tafuQQh0gPbxTJumq-1" style="edgeStyle=orthogonalEdgeStyle;rounded=0;orthogonalLoop=1;jettySize=auto;html=1;entryX=0.5;entryY=0;entryDx=0;entryDy=0;endArrow=none;endFill=0;" edge="1" parent="1" source="WK-tafuQQh0gPbxTJumq-3">
          <mxGeometry relative="1" as="geometry">
            <mxPoint x="1305" y="130" as="targetPoint" />
          </mxGeometry>
        </mxCell>
        <mxCell id="WK-tafuQQh0gPbxTJumq-2" style="edgeStyle=orthogonalEdgeStyle;rounded=0;orthogonalLoop=1;jettySize=auto;html=1;exitX=0.5;exitY=1;exitDx=0;exitDy=0;entryX=0.5;entryY=0;entryDx=0;entryDy=0;endArrow=none;endFill=0;" edge="1" parent="1" source="WK-tafuQQh0gPbxTJumq-3" target="WK-tafuQQh0gPbxTJumq-11">
          <mxGeometry relative="1" as="geometry" />
        </mxCell>
        <mxCell id="WK-tafuQQh0gPbxTJumq-3" value="" style="rhombus;whiteSpace=wrap;html=1;" vertex="1" parent="1">
          <mxGeometry x="1030" y="60" width="150" height="60" as="geometry" />
        </mxCell>
        <mxCell id="WK-tafuQQh0gPbxTJumq-4" value="" style="endArrow=classic;html=1;rounded=0;exitX=0.5;exitY=1;exitDx=0;exitDy=0;" edge="1" parent="1" source="WK-tafuQQh0gPbxTJumq-44">
          <mxGeometry width="50" height="50" relative="1" as="geometry">
            <mxPoint x="1714" y="1150" as="sourcePoint" />
            <mxPoint x="1505" y="1170" as="targetPoint" />
            <Array as="points">
              <mxPoint x="1705" y="1170" />
            </Array>
          </mxGeometry>
        </mxCell>
        <mxCell id="WK-tafuQQh0gPbxTJumq-5" value="Да" style="text;html=1;align=center;verticalAlign=middle;resizable=0;points=[];autosize=1;strokeColor=none;fillColor=none;" vertex="1" parent="1">
          <mxGeometry x="1175" y="60" width="40" height="30" as="geometry" />
        </mxCell>
        <mxCell id="WK-tafuQQh0gPbxTJumq-6" value="Нет" style="text;html=1;align=center;verticalAlign=middle;resizable=0;points=[];autosize=1;strokeColor=none;fillColor=none;" vertex="1" parent="1">
          <mxGeometry x="1061" y="120" width="40" height="30" as="geometry" />
        </mxCell>
        <mxCell id="WK-tafuQQh0gPbxTJumq-7" value="" style="strokeWidth=1;html=1;shape=mxgraph.flowchart.annotation_2;align=left;labelPosition=right;pointerEvents=1;rotation=-180;" vertex="1" parent="1">
          <mxGeometry x="977" y="60" width="20" height="60" as="geometry" />
        </mxCell>
        <mxCell id="WK-tafuQQh0gPbxTJumq-8" value="IsCompanyExist And SaveDialog1.Execute()" style="text;html=1;strokeColor=none;fillColor=none;align=center;verticalAlign=middle;whiteSpace=wrap;rounded=0;" vertex="1" parent="1">
          <mxGeometry x="860" y="60" width="120" height="60" as="geometry" />
        </mxCell>
        <mxCell id="WK-tafuQQh0gPbxTJumq-9" style="edgeStyle=orthogonalEdgeStyle;rounded=0;orthogonalLoop=1;jettySize=auto;html=1;entryX=0;entryY=0.5;entryDx=0;entryDy=0;entryPerimeter=0;endArrow=none;endFill=0;dashed=1;dashPattern=8 8;exitX=0;exitY=0.5;exitDx=0;exitDy=0;" edge="1" parent="1" target="WK-tafuQQh0gPbxTJumq-7">
          <mxGeometry relative="1" as="geometry">
            <mxPoint x="1030" y="90" as="sourcePoint" />
          </mxGeometry>
        </mxCell>
        <mxCell id="WK-tafuQQh0gPbxTJumq-10" style="edgeStyle=orthogonalEdgeStyle;rounded=0;orthogonalLoop=1;jettySize=auto;html=1;entryX=0.5;entryY=0;entryDx=0;entryDy=0;endArrow=none;endFill=0;" edge="1" parent="1" source="WK-tafuQQh0gPbxTJumq-11" target="WK-tafuQQh0gPbxTJumq-52">
          <mxGeometry relative="1" as="geometry">
            <mxPoint x="1105" y="1571.4285714285713" as="targetPoint" />
          </mxGeometry>
        </mxCell>
        <mxCell id="WK-tafuQQh0gPbxTJumq-11" value="Вывод о том, что &lt;br&gt;цех не найден" style="shape=parallelogram;perimeter=parallelogramPerimeter;whiteSpace=wrap;html=1;fixedSize=1;" vertex="1" parent="1">
          <mxGeometry x="1030" y="160" width="150" height="60" as="geometry" />
        </mxCell>
        <mxCell id="WK-tafuQQh0gPbxTJumq-12" style="edgeStyle=orthogonalEdgeStyle;rounded=0;orthogonalLoop=1;jettySize=auto;html=1;entryX=0.5;entryY=0;entryDx=0;entryDy=0;endArrow=none;endFill=0;" edge="1" parent="1" source="WK-tafuQQh0gPbxTJumq-13" target="WK-tafuQQh0gPbxTJumq-15">
          <mxGeometry relative="1" as="geometry" />
        </mxCell>
        <mxCell id="WK-tafuQQh0gPbxTJumq-13" value="&lt;div&gt;FileWriter := TFileWriter.Create(TfText);&lt;/div&gt;&lt;div&gt;FileWriter.FileName := SaveDialog1.FileName;&lt;/div&gt;" style="rounded=0;whiteSpace=wrap;html=1;" vertex="1" parent="1">
          <mxGeometry x="1230" y="130" width="150" height="60" as="geometry" />
        </mxCell>
        <mxCell id="WK-tafuQQh0gPbxTJumq-14" style="edgeStyle=orthogonalEdgeStyle;rounded=0;orthogonalLoop=1;jettySize=auto;html=1;entryX=0.5;entryY=0;entryDx=0;entryDy=0;endArrow=none;endFill=0;" edge="1" parent="1" source="WK-tafuQQh0gPbxTJumq-15" target="WK-tafuQQh0gPbxTJumq-18">
          <mxGeometry relative="1" as="geometry" />
        </mxCell>
        <mxCell id="WK-tafuQQh0gPbxTJumq-15" value="FileWriter.CheckFile();" style="shape=process;whiteSpace=wrap;html=1;backgroundOutline=1;" vertex="1" parent="1">
          <mxGeometry x="1230" y="210" width="150" height="60" as="geometry" />
        </mxCell>
        <mxCell id="WK-tafuQQh0gPbxTJumq-16" style="edgeStyle=orthogonalEdgeStyle;rounded=0;orthogonalLoop=1;jettySize=auto;html=1;entryX=0.5;entryY=0;entryDx=0;entryDy=0;endArrow=none;endFill=0;" edge="1" parent="1" source="WK-tafuQQh0gPbxTJumq-18">
          <mxGeometry relative="1" as="geometry">
            <mxPoint x="1505" y="370" as="targetPoint" />
          </mxGeometry>
        </mxCell>
        <mxCell id="WK-tafuQQh0gPbxTJumq-17" style="edgeStyle=orthogonalEdgeStyle;rounded=0;orthogonalLoop=1;jettySize=auto;html=1;exitX=0.5;exitY=1;exitDx=0;exitDy=0;entryX=0.5;entryY=0;entryDx=0;entryDy=0;endArrow=none;endFill=0;" edge="1" parent="1" source="WK-tafuQQh0gPbxTJumq-18" target="WK-tafuQQh0gPbxTJumq-48">
          <mxGeometry relative="1" as="geometry" />
        </mxCell>
        <mxCell id="WK-tafuQQh0gPbxTJumq-18" value="FileWriter.Status&lt;br&gt;&amp;nbsp;= FsGood" style="rhombus;whiteSpace=wrap;html=1;" vertex="1" parent="1">
          <mxGeometry x="1230" y="290" width="150" height="60" as="geometry" />
        </mxCell>
        <mxCell id="WK-tafuQQh0gPbxTJumq-19" value="Да" style="text;html=1;align=center;verticalAlign=middle;resizable=0;points=[];autosize=1;strokeColor=none;fillColor=none;" vertex="1" parent="1">
          <mxGeometry x="1375" y="290" width="40" height="30" as="geometry" />
        </mxCell>
        <mxCell id="WK-tafuQQh0gPbxTJumq-20" value="Нет" style="text;html=1;align=center;verticalAlign=middle;resizable=0;points=[];autosize=1;strokeColor=none;fillColor=none;" vertex="1" parent="1">
          <mxGeometry x="1265" y="350" width="40" height="30" as="geometry" />
        </mxCell>
        <mxCell id="WK-tafuQQh0gPbxTJumq-21" style="edgeStyle=orthogonalEdgeStyle;rounded=0;orthogonalLoop=1;jettySize=auto;html=1;entryX=0.5;entryY=0;entryDx=0;entryDy=0;endArrow=none;endFill=0;" edge="1" parent="1" source="WK-tafuQQh0gPbxTJumq-22" target="WK-tafuQQh0gPbxTJumq-24">
          <mxGeometry relative="1" as="geometry" />
        </mxCell>
        <mxCell id="WK-tafuQQh0gPbxTJumq-22" value="FileWriter.ResetFile();" style="shape=process;whiteSpace=wrap;html=1;backgroundOutline=1;" vertex="1" parent="1">
          <mxGeometry x="1430" y="350" width="150" height="60" as="geometry" />
        </mxCell>
        <mxCell id="WK-tafuQQh0gPbxTJumq-23" style="edgeStyle=orthogonalEdgeStyle;rounded=0;orthogonalLoop=1;jettySize=auto;html=1;entryX=0.5;entryY=0;entryDx=0;entryDy=0;endArrow=none;endFill=0;" edge="1" parent="1" source="WK-tafuQQh0gPbxTJumq-24" target="WK-tafuQQh0gPbxTJumq-26">
          <mxGeometry relative="1" as="geometry" />
        </mxCell>
        <mxCell id="WK-tafuQQh0gPbxTJumq-24" value="&lt;div&gt;&lt;font style=&quot;font-size: 10px;&quot;&gt;AllSalariesOfCompany := 0;&lt;/font&gt;&lt;/div&gt;&lt;div&gt;&lt;font style=&quot;font-size: 10px;&quot;&gt;&lt;span style=&quot;background-color: initial;&quot;&gt;CountOfCompanyWorkers := 0;&lt;/span&gt;&lt;/font&gt;&lt;/div&gt;" style="rounded=0;whiteSpace=wrap;html=1;" vertex="1" parent="1">
          <mxGeometry x="1430" y="430" width="150" height="60" as="geometry" />
        </mxCell>
        <mxCell id="WK-tafuQQh0gPbxTJumq-25" style="edgeStyle=orthogonalEdgeStyle;rounded=0;orthogonalLoop=1;jettySize=auto;html=1;entryX=0.5;entryY=0;entryDx=0;entryDy=0;endArrow=none;endFill=0;" edge="1" parent="1" source="WK-tafuQQh0gPbxTJumq-26" target="WK-tafuQQh0gPbxTJumq-28">
          <mxGeometry relative="1" as="geometry" />
        </mxCell>
        <mxCell id="WK-tafuQQh0gPbxTJumq-26" value="&lt;div&gt;&lt;font style=&quot;font-size: 10px;&quot;&gt;PriceA := StrToInt(EFieldA.Text);&lt;/font&gt;&lt;/div&gt;&lt;div&gt;&lt;span style=&quot;font-size: 10px; background-color: initial;&quot;&gt;PriceB := StrToInt(EFieldB.Text);&lt;/span&gt;&lt;/div&gt;&lt;div&gt;&lt;span style=&quot;font-size: 10px; background-color: initial;&quot;&gt;PriceC := StrToInt(EFieldC.Text);&lt;/span&gt;&lt;/div&gt;" style="rounded=0;whiteSpace=wrap;html=1;" vertex="1" parent="1">
          <mxGeometry x="1430" y="510" width="150" height="60" as="geometry" />
        </mxCell>
        <mxCell id="WK-tafuQQh0gPbxTJumq-27" style="edgeStyle=orthogonalEdgeStyle;rounded=0;orthogonalLoop=1;jettySize=auto;html=1;entryX=0.5;entryY=0;entryDx=0;entryDy=0;endArrow=none;endFill=0;" edge="1" parent="1" source="WK-tafuQQh0gPbxTJumq-28" target="WK-tafuQQh0gPbxTJumq-34">
          <mxGeometry relative="1" as="geometry" />
        </mxCell>
        <mxCell id="WK-tafuQQh0gPbxTJumq-28" value="A2&lt;br&gt;I := 1 To Workers.Count" style="shape=loopLimit;whiteSpace=wrap;html=1;" vertex="1" parent="1">
          <mxGeometry x="1430" y="590" width="150" height="60" as="geometry" />
        </mxCell>
        <mxCell id="WK-tafuQQh0gPbxTJumq-29" value="" style="shape=loopLimit;whiteSpace=wrap;html=1;rotation=-180;" vertex="1" parent="1">
          <mxGeometry x="1430" y="1200" width="150" height="60" as="geometry" />
        </mxCell>
        <mxCell id="WK-tafuQQh0gPbxTJumq-30" style="edgeStyle=orthogonalEdgeStyle;rounded=0;orthogonalLoop=1;jettySize=auto;html=1;endArrow=none;endFill=0;" edge="1" parent="1" source="WK-tafuQQh0gPbxTJumq-31" target="WK-tafuQQh0gPbxTJumq-46">
          <mxGeometry relative="1" as="geometry" />
        </mxCell>
        <mxCell id="WK-tafuQQh0gPbxTJumq-31" value="I&lt;br&gt;A2" style="text;html=1;strokeColor=none;fillColor=none;align=center;verticalAlign=middle;whiteSpace=wrap;rounded=0;" vertex="1" parent="1">
          <mxGeometry x="1430" y="1200" width="150" height="60" as="geometry" />
        </mxCell>
        <mxCell id="WK-tafuQQh0gPbxTJumq-32" style="edgeStyle=orthogonalEdgeStyle;rounded=0;orthogonalLoop=1;jettySize=auto;html=1;entryX=0.5;entryY=0;entryDx=0;entryDy=0;endArrow=none;endFill=0;" edge="1" parent="1" source="WK-tafuQQh0gPbxTJumq-34">
          <mxGeometry relative="1" as="geometry">
            <mxPoint x="1705" y="750" as="targetPoint" />
          </mxGeometry>
        </mxCell>
        <mxCell id="WK-tafuQQh0gPbxTJumq-33" style="edgeStyle=orthogonalEdgeStyle;rounded=0;orthogonalLoop=1;jettySize=auto;html=1;entryX=0.5;entryY=0;entryDx=0;entryDy=0;endArrow=none;endFill=0;" edge="1" parent="1" source="WK-tafuQQh0gPbxTJumq-34" target="WK-tafuQQh0gPbxTJumq-31">
          <mxGeometry relative="1" as="geometry" />
        </mxCell>
        <mxCell id="WK-tafuQQh0gPbxTJumq-34" value="&lt;font style=&quot;font-size: 10px;&quot;&gt;(Workers[I - 1].&lt;br&gt;CompanyName = &lt;br&gt;CurCompany)&lt;/font&gt;" style="rhombus;whiteSpace=wrap;html=1;" vertex="1" parent="1">
          <mxGeometry x="1430" y="670" width="150" height="60" as="geometry" />
        </mxCell>
        <mxCell id="WK-tafuQQh0gPbxTJumq-35" value="Да" style="text;html=1;align=center;verticalAlign=middle;resizable=0;points=[];autosize=1;strokeColor=none;fillColor=none;" vertex="1" parent="1">
          <mxGeometry x="1575" y="670" width="40" height="30" as="geometry" />
        </mxCell>
        <mxCell id="WK-tafuQQh0gPbxTJumq-36" style="edgeStyle=orthogonalEdgeStyle;rounded=0;orthogonalLoop=1;jettySize=auto;html=1;entryX=0.5;entryY=0;entryDx=0;entryDy=0;endArrow=none;endFill=0;" edge="1" parent="1" source="WK-tafuQQh0gPbxTJumq-37" target="WK-tafuQQh0gPbxTJumq-39">
          <mxGeometry relative="1" as="geometry" />
        </mxCell>
        <mxCell id="WK-tafuQQh0gPbxTJumq-37" value="&lt;div&gt;&lt;font style=&quot;font-size: 10px;&quot;&gt;CountOfAllDetailsByWorker := Workers[I - 1].CountOfDetailsA&lt;/font&gt;&lt;/div&gt;&lt;div&gt;&lt;font style=&quot;font-size: 10px;&quot;&gt;+ Workers[I - 1].CountOfDetailsB&lt;/font&gt;&lt;/div&gt;&lt;div&gt;&lt;font style=&quot;font-size: 10px;&quot;&gt;+ Workers[I - 1]&lt;/font&gt;&lt;span style=&quot;font-size: 10px; background-color: initial;&quot;&gt;CountOfDetailsC;&lt;/span&gt;&lt;/div&gt;" style="rounded=0;whiteSpace=wrap;html=1;" vertex="1" parent="1">
          <mxGeometry x="1630" y="750" width="150" height="60" as="geometry" />
        </mxCell>
        <mxCell id="WK-tafuQQh0gPbxTJumq-38" style="edgeStyle=orthogonalEdgeStyle;rounded=0;orthogonalLoop=1;jettySize=auto;html=1;entryX=0.5;entryY=0;entryDx=0;entryDy=0;endArrow=none;endFill=0;" edge="1" parent="1" source="WK-tafuQQh0gPbxTJumq-39" target="WK-tafuQQh0gPbxTJumq-41">
          <mxGeometry relative="1" as="geometry" />
        </mxCell>
        <mxCell id="WK-tafuQQh0gPbxTJumq-39" value="&lt;font style=&quot;font-size: 10px;&quot;&gt;Вывод&amp;nbsp;&lt;br&gt;CountOfAllDetails&lt;br&gt;ByWorker&lt;/font&gt;" style="shape=parallelogram;perimeter=parallelogramPerimeter;whiteSpace=wrap;html=1;fixedSize=1;" vertex="1" parent="1">
          <mxGeometry x="1630" y="830" width="150" height="60" as="geometry" />
        </mxCell>
        <mxCell id="WK-tafuQQh0gPbxTJumq-40" style="edgeStyle=orthogonalEdgeStyle;rounded=0;orthogonalLoop=1;jettySize=auto;html=1;entryX=0.5;entryY=0;entryDx=0;entryDy=0;endArrow=none;endFill=0;" edge="1" parent="1" source="WK-tafuQQh0gPbxTJumq-41" target="WK-tafuQQh0gPbxTJumq-43">
          <mxGeometry relative="1" as="geometry" />
        </mxCell>
        <mxCell id="WK-tafuQQh0gPbxTJumq-41" value="&lt;div&gt;&lt;font style=&quot;font-size: 10px;&quot;&gt;SalaryOfWorker := PriceA * &lt;/font&gt;&lt;font style=&quot;font-size: 10px;&quot;&gt;Workers[I - 1].CountOfDetailsA +&lt;/font&gt;&lt;/div&gt;&lt;div&gt;&lt;span style=&quot;font-size: 10px;&quot;&gt;PriceB * Workers[I - 1].CountOfDetailsB + PriceC *&lt;/span&gt;&lt;/div&gt;&lt;div&gt;&lt;font style=&quot;font-size: 10px;&quot;&gt;Workers[I - 1].CountOfDetailsC;&lt;/font&gt;&lt;/div&gt;" style="rounded=0;whiteSpace=wrap;html=1;" vertex="1" parent="1">
          <mxGeometry x="1630" y="910" width="150" height="70" as="geometry" />
        </mxCell>
        <mxCell id="WK-tafuQQh0gPbxTJumq-42" style="edgeStyle=orthogonalEdgeStyle;rounded=0;orthogonalLoop=1;jettySize=auto;html=1;entryX=0.5;entryY=0;entryDx=0;entryDy=0;endArrow=none;endFill=0;" edge="1" parent="1" source="WK-tafuQQh0gPbxTJumq-43" target="WK-tafuQQh0gPbxTJumq-44">
          <mxGeometry relative="1" as="geometry" />
        </mxCell>
        <mxCell id="WK-tafuQQh0gPbxTJumq-43" value="&lt;font style=&quot;font-size: 10px;&quot;&gt;Вывод&amp;nbsp;&lt;br&gt;SalaryOfWorker&amp;nbsp;&lt;br&gt;&lt;/font&gt;" style="shape=parallelogram;perimeter=parallelogramPerimeter;whiteSpace=wrap;html=1;fixedSize=1;" vertex="1" parent="1">
          <mxGeometry x="1630" y="1000" width="150" height="60" as="geometry" />
        </mxCell>
        <mxCell id="WK-tafuQQh0gPbxTJumq-44" value="&lt;div&gt;&lt;font style=&quot;font-size: 10px;&quot;&gt;AllSalariesOfCompany := AllSalariesOfCompany +&lt;/font&gt;&lt;/div&gt;&lt;div&gt;&lt;font style=&quot;font-size: 10px;&quot;&gt;SalaryOfWorker;&lt;/font&gt;&lt;span style=&quot;background-color: initial;&quot;&gt;&amp;nbsp; &amp;nbsp;&amp;nbsp;&lt;/span&gt;&lt;font style=&quot;background-color: initial; font-size: 10px;&quot;&gt;Inc(CountOfCompanyWorkers);&lt;/font&gt;&lt;/div&gt;" style="rounded=0;whiteSpace=wrap;html=1;" vertex="1" parent="1">
          <mxGeometry x="1630" y="1080" width="150" height="60" as="geometry" />
        </mxCell>
        <mxCell id="WK-tafuQQh0gPbxTJumq-45" style="edgeStyle=orthogonalEdgeStyle;rounded=0;orthogonalLoop=1;jettySize=auto;html=1;entryX=0.5;entryY=0;entryDx=0;entryDy=0;endArrow=none;endFill=0;" edge="1" parent="1" source="WK-tafuQQh0gPbxTJumq-46" target="WK-tafuQQh0gPbxTJumq-47">
          <mxGeometry relative="1" as="geometry" />
        </mxCell>
        <mxCell id="WK-tafuQQh0gPbxTJumq-46" value="&lt;div&gt;&lt;font style=&quot;font-size: 10px;&quot;&gt;AllSalariesOfCompany := AllSalariesOfCompany /&lt;span style=&quot;background-color: initial;&quot;&gt;&amp;nbsp; CountOfCompanyWorkers;&lt;/span&gt;&lt;/font&gt;&lt;/div&gt;" style="rounded=0;whiteSpace=wrap;html=1;" vertex="1" parent="1">
          <mxGeometry x="1430" y="1280" width="150" height="60" as="geometry" />
        </mxCell>
        <mxCell id="WK-tafuQQh0gPbxTJumq-47" value="&lt;font style=&quot;&quot;&gt;Вывод&amp;nbsp;&lt;br&gt;&lt;span style=&quot;font-size: 10px;&quot;&gt;AllSalariesOfCompany,&amp;nbsp;&lt;/span&gt;&lt;br&gt;&lt;span style=&quot;font-size: 10px;&quot;&gt;FileWriter.Status&lt;/span&gt;&lt;br&gt;&lt;/font&gt;" style="shape=parallelogram;perimeter=parallelogramPerimeter;whiteSpace=wrap;html=1;fixedSize=1;" vertex="1" parent="1">
          <mxGeometry x="1430" y="1360" width="150" height="60" as="geometry" />
        </mxCell>
        <mxCell id="WK-tafuQQh0gPbxTJumq-48" value="Вывод о некоректном файле &lt;br&gt;и ошибка файла" style="shape=parallelogram;perimeter=parallelogramPerimeter;whiteSpace=wrap;html=1;fixedSize=1;" vertex="1" parent="1">
          <mxGeometry x="1230" y="390" width="150" height="60" as="geometry" />
        </mxCell>
        <mxCell id="WK-tafuQQh0gPbxTJumq-49" style="edgeStyle=orthogonalEdgeStyle;rounded=0;orthogonalLoop=1;jettySize=auto;html=1;entryX=0.5;entryY=0;entryDx=0;entryDy=0;endArrow=none;endFill=0;" edge="1" parent="1" source="WK-tafuQQh0gPbxTJumq-50" target="WK-tafuQQh0gPbxTJumq-3">
          <mxGeometry relative="1" as="geometry" />
        </mxCell>
        <mxCell id="WK-tafuQQh0gPbxTJumq-50" value="A" style="ellipse;whiteSpace=wrap;html=1;aspect=fixed;" vertex="1" parent="1">
          <mxGeometry x="1090" y="10" width="30" height="30" as="geometry" />
        </mxCell>
        <mxCell id="WK-tafuQQh0gPbxTJumq-51" value="" style="endArrow=classic;html=1;rounded=0;exitX=0.5;exitY=1;exitDx=0;exitDy=0;" edge="1" parent="1">
          <mxGeometry width="50" height="50" relative="1" as="geometry">
            <mxPoint x="1505" y="1420" as="sourcePoint" />
            <mxPoint x="1104" y="1439" as="targetPoint" />
            <Array as="points">
              <mxPoint x="1505" y="1440" />
            </Array>
          </mxGeometry>
        </mxCell>
        <mxCell id="WK-tafuQQh0gPbxTJumq-52" value="Конец" style="rounded=1;whiteSpace=wrap;html=1;arcSize=50;" vertex="1" parent="1">
          <mxGeometry x="1030" y="1460" width="150" height="60" as="geometry" />
        </mxCell>
        <mxCell id="WK-tafuQQh0gPbxTJumq-53" value="" style="endArrow=classic;html=1;rounded=0;exitX=0.5;exitY=1;exitDx=0;exitDy=0;" edge="1" parent="1" source="WK-tafuQQh0gPbxTJumq-48">
          <mxGeometry width="50" height="50" relative="1" as="geometry">
            <mxPoint x="1305" y="1440" as="sourcePoint" />
            <mxPoint x="1105" y="1430" as="targetPoint" />
            <Array as="points">
              <mxPoint x="1305" y="1430" />
            </Array>
          </mxGeometry>
        </mxCell>
      </root>
    </mxGraphModel>
  </diagram>
</mxfile>
